<?xml version="1.0" encoding="UTF-8"?>
<svg xmlns="http://www.w3.org/2000/svg" xmlns:xlink="http://www.w3.org/1999/xlink" width="35px" height="px" viewBox="0 0 35 39" version="1.1">
<g id="surface1">
<path style=" stroke:none;fill-rule:nonzero;fill:rgb(83.137255%,72.156863%,18.823529%);fill-opacity:1;" d="M 3.191406 35.136719 L 0 0 L 35.054688 0 L 31.859375 35.132812 L 17.503906 39.039062 Z M 3.191406 35.136719 "/>
<path style=" stroke:none;fill-rule:nonzero;fill:rgb(100%,100%,100%);fill-opacity:1;" d="M 29.519531 15.601562 L 23.332031 15.601562 L 23.332031 11.191406 L 29.910156 11.191406 L 30.296875 6.878906 L 18.746094 6.878906 L 18.746094 19.914062 L 24.726562 19.914062 L 24.199219 25.5 L 18.746094 26.476562 L 18.746094 30.96875 L 28.300781 28.832031 Z M 29.519531 15.601562 "/>
<path style=" stroke:none;fill-rule:nonzero;fill:rgb(100%,100%,100%);fill-opacity:1;" d="M 16.347656 6.878906 L 6.550781 6.878906 L 6.957031 11.191406 L 11.941406 11.191406 L 11.941406 25.855469 L 9.5 25.503906 L 9.1875 22.066406 C 9.1875 22.066406 6.25 22.066406 4.78125 22.066406 L 5.394531 28.832031 C 16.347656 30.96875 5.4375 28.832031 16.347656 30.96875 Z M 16.347656 6.878906 "/>
</g>
</svg>
