<?xml version="1.0" encoding="UTF-8"?>
<svg xmlns="http://www.w3.org/2000/svg" xmlns:xlink="http://www.w3.org/1999/xlink" width="35px" height="px" viewBox="0 0 35 35" version="1.1">
<g id="surface1">
<path style=" stroke:none;fill-rule:nonzero;fill:rgb(8.235294%,44.705882%,71.372549%);fill-opacity:1;" d="M 5.144531 31.207031 L 2.394531 0.371094 L 32.605469 0.371094 L 29.851562 31.199219 L 17.480469 34.628906 Z M 5.144531 31.207031 "/>
<path style=" stroke:none;fill-rule:nonzero;fill:rgb(20%,66.27451%,86.27451%);fill-opacity:1;" d="M 17.5 32.007812 L 27.496094 29.238281 L 29.847656 2.890625 L 17.5 2.890625 Z M 17.5 32.007812 "/>
<path style=" stroke:none;fill-rule:nonzero;fill:rgb(100%,100%,100%);fill-opacity:1;" d="M 17.5 14.0625 L 22.503906 14.0625 L 22.851562 10.191406 L 17.5 10.191406 L 17.5 6.40625 L 26.984375 6.40625 L 26.894531 7.421875 L 25.964844 17.84375 L 17.5 17.84375 Z M 17.5 14.0625 "/>
<path style=" stroke:none;fill-rule:nonzero;fill:rgb(92.156863%,92.156863%,92.156863%);fill-opacity:1;" d="M 17.523438 23.882812 L 17.507812 23.890625 L 13.292969 22.753906 L 13.023438 19.734375 L 9.230469 19.734375 L 9.757812 25.675781 L 17.503906 27.824219 L 17.523438 27.820312 Z M 17.523438 23.882812 "/>
<path style=" stroke:none;fill-rule:nonzero;fill:rgb(100%,100%,100%);fill-opacity:1;" d="M 22.183594 17.683594 L 21.726562 22.75 L 17.507812 23.886719 L 17.507812 27.824219 L 25.261719 25.675781 L 25.320312 25.035156 L 25.976562 17.683594 Z M 22.183594 17.683594 "/>
<path style=" stroke:none;fill-rule:nonzero;fill:rgb(92.156863%,92.156863%,92.156863%);fill-opacity:1;" d="M 17.511719 6.40625 L 17.511719 10.191406 L 8.378906 10.191406 L 8.300781 9.339844 L 8.128906 7.421875 L 8.039062 6.40625 Z M 17.5 14.0625 L 17.5 17.84375 L 13.339844 17.84375 L 13.265625 16.996094 L 13.09375 15.078125 L 13.003906 14.0625 Z M 17.5 14.0625 "/>
</g>
</svg>
