<?xml version="1.0" encoding="UTF-8"?>
<svg xmlns="http://www.w3.org/2000/svg" xmlns:xlink="http://www.w3.org/1999/xlink" width="30px" height="30px" viewBox="0 0 30 30" version="1.1">
<g id="surface1">
<path style=" stroke:none;fill-rule:nonzero;fill:rgb(14.901961%,30.196078%,89.411765%);fill-opacity:1;" d="M 4.179688 27 L 1.773438 0 L 28.226562 0 L 25.816406 26.996094 L 14.984375 30 Z M 4.179688 27 "/>
<path style=" stroke:none;fill-rule:nonzero;fill:rgb(16.078431%,39.607843%,94.509804%);fill-opacity:1;" d="M 23.753906 25.277344 L 25.8125 2.207031 L 15 2.207031 L 15 27.703125 Z M 23.753906 25.277344 "/>
<path style=" stroke:none;fill-rule:nonzero;fill:rgb(92.156863%,92.156863%,92.156863%);fill-opacity:1;" d="M 7.292969 12.222656 L 7.589844 15.535156 L 15 15.535156 L 15 12.222656 Z M 6.996094 8.832031 L 15 8.832031 L 15 5.519531 L 6.695312 5.519531 Z M 15 20.824219 L 14.984375 20.828125 L 11.296875 19.832031 L 11.0625 17.1875 L 7.738281 17.1875 L 8.203125 22.390625 L 14.984375 24.273438 L 15 24.269531 Z M 15 20.824219 "/>
<path style=" stroke:none;fill-rule:nonzero;fill:rgb(100%,100%,100%);fill-opacity:1;" d="M 14.988281 12.222656 L 14.988281 15.535156 L 19.066406 15.535156 L 18.683594 19.828125 L 14.988281 20.824219 L 14.988281 24.269531 L 21.777344 22.390625 L 21.828125 21.828125 L 22.605469 13.109375 L 22.6875 12.222656 L 23.285156 5.519531 L 14.988281 5.519531 L 14.988281 8.832031 L 19.65625 8.832031 L 19.351562 12.222656 Z M 14.988281 12.222656 "/>
</g>
</svg>
