<?xml version="1.0" encoding="UTF-8"?>
<svg xmlns="http://www.w3.org/2000/svg" xmlns:xlink="http://www.w3.org/1999/xlink" width="35px" height="px" viewBox="0 0 35 50" version="1.1">
<g id="surface1">
<path style=" stroke:none;fill-rule:nonzero;fill:rgb(10.196078%,73.72549%,99.607843%);fill-opacity:1;" d="M 16.691406 25.007812 C 16.691406 20.582031 20.425781 16.964844 25.046875 16.964844 C 29.648438 16.964844 33.402344 20.554688 33.402344 25.007812 C 33.402344 29.4375 29.667969 33.046875 25.046875 33.046875 C 20.445312 33.046875 16.691406 29.445312 16.691406 25.007812 Z M 16.691406 25.007812 "/>
<path style=" stroke:none;fill-rule:nonzero;fill:rgb(3.921569%,81.176471%,51.372549%);fill-opacity:1;" d="M 0.015625 41.078125 C 0.015625 36.644531 3.746094 33.027344 8.367188 33.027344 L 16.722656 33.027344 L 16.722656 41.078125 C 16.722656 45.5 12.988281 49.117188 8.367188 49.117188 C 3.746094 49.117188 0.015625 45.519531 0.015625 41.078125 Z M 0.015625 41.078125 "/>
<path style=" stroke:none;fill-rule:nonzero;fill:rgb(100%,44.705882%,38.431373%);fill-opacity:1;" d="M 16.691406 0.902344 L 16.691406 16.972656 L 25.046875 16.972656 C 29.648438 16.972656 33.402344 13.375 33.402344 8.921875 C 33.402344 4.5 29.667969 0.882812 25.046875 0.882812 L 16.691406 0.882812 Z M 16.691406 0.902344 "/>
<path style=" stroke:none;fill-rule:nonzero;fill:rgb(94.901961%,30.588235%,11.764706%);fill-opacity:1;" d="M 0.015625 8.453125 C 0.015625 12.878906 3.746094 16.492188 8.367188 16.492188 L 16.722656 16.492188 L 16.722656 0.402344 L 8.367188 0.402344 C 3.746094 0.402344 0.015625 4 0.015625 8.453125 Z M 0.015625 8.453125 "/>
<path style=" stroke:none;fill-rule:nonzero;fill:rgb(63.529412%,34.901961%,100%);fill-opacity:1;" d="M 0.015625 25.007812 C 0.015625 29.4375 3.746094 33.046875 8.367188 33.046875 L 16.722656 33.046875 L 16.722656 16.972656 L 8.367188 16.972656 C 3.746094 16.972656 0.015625 20.582031 0.015625 25.007812 Z M 0.015625 25.007812 "/>
</g>
</svg>
