<?xml version="1.0" encoding="UTF-8"?>
<svg xmlns="http://www.w3.org/2000/svg" xmlns:xlink="http://www.w3.org/1999/xlink" width="30px" height="30px" viewBox="0 0 30 44" version="1.1">
<g id="surface1">
<path style=" stroke:none;fill-rule:nonzero;fill:rgb(3.921569%,81.176471%,51.372549%);fill-opacity:1;" d="M 7.5 44 C 11.640625 44 15 40.714844 15 36.667969 L 15 29.332031 L 7.5 29.332031 C 3.363281 29.332031 0.00390625 32.617188 0.00390625 36.667969 C 0.00390625 40.714844 3.363281 44 7.5 44 Z M 7.5 44 "/>
<path style=" stroke:none;fill-rule:nonzero;fill:rgb(63.529412%,34.901961%,100%);fill-opacity:1;" d="M 0.00390625 22 C 0.00390625 17.953125 3.363281 14.667969 7.5 14.667969 L 15 14.667969 L 15 29.332031 L 7.5 29.332031 C 3.363281 29.332031 0.00390625 26.046875 0.00390625 22 Z M 0.00390625 22 "/>
<path style=" stroke:none;fill-rule:nonzero;fill:rgb(94.901961%,30.588235%,11.764706%);fill-opacity:1;" d="M 0.00390625 7.332031 C 0.00390625 3.285156 3.363281 0 7.5 0 L 15 0 L 15 14.667969 L 7.5 14.667969 C 3.363281 14.667969 0.00390625 11.382812 0.00390625 7.332031 Z M 0.00390625 7.332031 "/>
<path style=" stroke:none;fill-rule:nonzero;fill:rgb(100%,44.705882%,38.431373%);fill-opacity:1;" d="M 15 0 L 22.5 0 C 26.636719 0 29.996094 3.285156 29.996094 7.332031 C 29.996094 11.382812 26.636719 14.667969 22.5 14.667969 L 15 14.667969 Z M 15 0 "/>
<path style=" stroke:none;fill-rule:nonzero;fill:rgb(10.196078%,73.72549%,99.607843%);fill-opacity:1;" d="M 29.996094 22 C 29.996094 26.046875 26.636719 29.332031 22.5 29.332031 C 18.359375 29.332031 15 26.046875 15 22 C 15 17.953125 18.359375 14.667969 22.5 14.667969 C 26.636719 14.667969 29.996094 17.953125 29.996094 22 Z M 29.996094 22 "/>
</g>
</svg>
