<?xml version="1.0" encoding="UTF-8"?>
<svg xmlns="http://www.w3.org/2000/svg" xmlns:xlink="http://www.w3.org/1999/xlink" width="35px" height="px" viewBox="0 0 35 35" version="1.1">
<g id="surface1">
<path style=" stroke:none;fill-rule:nonzero;fill:rgb(95.294118%,30.980392%,16.078431%);fill-opacity:1;" d="M 34.109375 15.960938 L 19.035156 0.890625 C 18.167969 0.0234375 16.761719 0.0234375 15.894531 0.890625 L 12.765625 4.023438 L 16.734375 7.992188 C 17.65625 7.679688 18.714844 7.890625 19.449219 8.625 C 20.1875 9.363281 20.394531 10.429688 20.078125 11.355469 L 23.902344 15.183594 C 24.828125 14.863281 25.898438 15.070312 26.636719 15.8125 C 27.667969 16.84375 27.667969 18.519531 26.636719 19.550781 C 27.234375 18.515625 28.453125 18.007812 29.609375 18.320312 C 30.765625 18.628906 31.570312 19.675781 31.570312 20.875 C 31.570312 22.070312 30.765625 23.121094 29.609375 23.429688 C 28.453125 23.738281 27.234375 23.234375 26.636719 22.199219 L 18.75 13.105469 L 18.75 22.496094 C 18.667969 20.320312 20.367188 18.488281 22.542969 18.40625 C 24.71875 18.320312 26.554688 20.019531 26.636719 22.199219 C 27.667969 23.230469 27.667969 24.902344 26.636719 25.9375 C 25.601562 26.972656 23.925781 26.972656 22.894531 25.9375 C 21.863281 24.902344 21.863281 23.230469 22.894531 22.199219 C 24.273438 22.382812 25.269531 23.601562 25.179688 24.988281 C 25.085938 26.375 23.9375 27.453125 22.546875 27.453125 C 21.15625 27.453125 20.003906 26.375 19.914062 24.988281 C 19.820312 23.601562 20.820312 22.382812 22.199219 22.199219 L 22.199219 12.941406 C 24.753906 13.101562 26.695312 15.304688 26.535156 17.859375 C 26.375 20.414062 24.175781 22.355469 21.621094 22.199219 C 20.835938 21.414062 20.648438 20.265625 21.050781 19.304688 L 11.226562 5.558594 L 0.890625 15.894531 C 2.632812 10.808594 8.167969 8.097656 13.25 9.839844 C 18.335938 11.578125 21.046875 17.113281 19.304688 22.199219 L 34.375 37.269531 C 35.246094 38.136719 36.652344 38.136719 37.519531 37.269531 L 52.519531 22.265625 C 51.632812 23.117188 50.226562 23.085938 49.375 22.199219 Z M 34.109375 15.960938 "/>
</g>
</svg>
