<?xml version="1.0" encoding="UTF-8"?>
<svg xmlns="http://www.w3.org/2000/svg" xmlns:xlink="http://www.w3.org/1999/xlink" width="30px" height="30px" viewBox="0 0 30 30" version="1.1">
<g id="surface1">
<path style=" stroke:none;fill-rule:nonzero;fill:rgb(94.117647%,31.764706%,20%);fill-opacity:1;" d="M 28.671875 13.734375 L 16.265625 1.328125 C 15.550781 0.613281 14.390625 0.613281 13.675781 1.328125 L 11.101562 3.902344 L 14.367188 7.171875 C 15.128906 6.914062 16 7.085938 16.605469 7.691406 C 17.214844 8.300781 17.382812 9.179688 17.121094 9.941406 L 20.269531 13.09375 C 21.035156 12.832031 21.914062 13 22.519531 13.609375 C 23.371094 14.460938 23.371094 15.839844 22.519531 16.691406 C 21.671875 17.539062 20.292969 17.539062 19.441406 16.691406 C 18.800781 16.050781 18.644531 15.109375 18.96875 14.320312 L 16.027344 11.382812 L 16.027344 19.113281 C 16.234375 19.21875 16.433594 19.355469 16.605469 19.527344 C 17.453125 20.378906 17.453125 21.753906 16.605469 22.605469 C 15.753906 23.457031 14.375 23.457031 13.523438 22.605469 C 12.675781 21.753906 12.675781 20.375 13.523438 19.527344 C 13.734375 19.316406 13.980469 19.15625 14.238281 19.050781 L 14.238281 11.25 C 13.980469 11.140625 13.734375 10.984375 13.523438 10.773438 C 12.878906 10.128906 12.726562 9.183594 13.054688 8.390625 L 9.835938 5.167969 L 1.328125 13.675781 C 0.613281 14.390625 0.613281 15.550781 1.328125 16.265625 L 13.734375 28.671875 C 14.449219 29.386719 15.609375 29.386719 16.324219 28.671875 L 28.671875 16.324219 C 29.386719 15.609375 29.386719 14.449219 28.671875 13.734375 Z M 28.671875 13.734375 "/>
</g>
</svg>
