<?xml version="1.0" encoding="UTF-8"?>
<svg xmlns="http://www.w3.org/2000/svg" xmlns:xlink="http://www.w3.org/1999/xlink" width="30px" height="30px" viewBox="0 0 30 30" version="1.1">
<g id="surface1">
<path style=" stroke:none;fill-rule:nonzero;fill:rgb(0%,0%,0%);fill-opacity:1;" d="M 6.351562 0 L 7.699219 0 L 7.699219 1.335938 L 8.941406 1.335938 L 8.941406 0 L 10.289062 0 L 10.289062 4.042969 L 8.941406 4.042969 L 8.941406 2.695312 L 7.710938 2.695312 L 7.710938 4.042969 L 6.351562 4.042969 M 12.070312 1.347656 L 10.882812 1.347656 L 10.882812 0 L 14.613281 0 L 14.613281 1.347656 L 13.417969 1.347656 L 13.417969 4.042969 L 12.070312 4.042969 M 15.203125 0 L 16.617188 0 L 17.484375 1.421875 L 18.351562 0 L 19.765625 0 L 19.765625 4.042969 L 18.414062 4.042969 L 18.414062 2.039062 L 17.472656 3.492188 L 16.527344 2.039062 L 16.527344 4.042969 L 15.203125 4.042969 M 20.429688 0 L 21.78125 0 L 21.78125 2.707031 L 23.6875 2.707031 L 23.6875 4.042969 L 20.429688 4.042969 "/>
<path style=" stroke:none;fill-rule:nonzero;fill:rgb(89.411765%,30.196078%,14.901961%);fill-opacity:1;" d="M 6.304688 27.597656 L 4.371094 5.894531 L 25.628906 5.894531 L 23.695312 27.585938 L 14.984375 30 "/>
<path style=" stroke:none;fill-rule:nonzero;fill:rgb(94.509804%,39.607843%,16.078431%);fill-opacity:1;" d="M 15 28.15625 L 15 7.675781 L 23.6875 7.675781 L 22.03125 26.191406 "/>
<path style=" stroke:none;fill-rule:nonzero;fill:rgb(92.156863%,92.156863%,92.156863%);fill-opacity:1;" d="M 8.320312 10.328125 L 15 10.328125 L 15 12.992188 L 11.238281 12.992188 L 11.484375 15.714844 L 15 15.714844 L 15 18.371094 L 9.046875 18.371094 M 9.164062 19.703125 L 11.835938 19.703125 L 12.023438 21.832031 L 15 22.628906 L 15 25.40625 L 9.539062 23.882812 "/>
<path style=" stroke:none;fill-rule:nonzero;fill:rgb(100%,100%,100%);fill-opacity:1;" d="M 21.65625 10.328125 L 14.988281 10.328125 L 14.988281 12.992188 L 21.410156 12.992188 M 21.171875 15.714844 L 14.988281 15.714844 L 14.988281 18.375 L 18.269531 18.375 L 17.960938 21.832031 L 14.988281 22.628906 L 14.988281 25.394531 L 20.4375 23.882812 "/>
</g>
</svg>
