<?xml version="1.0" encoding="UTF-8"?>
<svg xmlns="http://www.w3.org/2000/svg" xmlns:xlink="http://www.w3.org/1999/xlink" width="35px" height="px" viewBox="0 0 35 35" version="1.1">
<g id="surface1">
<path style=" stroke:none;fill-rule:nonzero;fill:rgb(89.411765%,30.196078%,14.901961%);fill-opacity:1;" d="M 5.207031 31.136719 L 2.46875 0.453125 L 32.53125 0.453125 L 29.792969 31.132812 L 17.480469 34.546875 Z M 5.207031 31.136719 "/>
<path style=" stroke:none;fill-rule:nonzero;fill:rgb(94.509804%,39.607843%,16.078431%);fill-opacity:1;" d="M 17.5 31.9375 L 27.445312 29.179688 L 29.789062 2.964844 L 17.5 2.964844 Z M 17.5 31.9375 "/>
<path style=" stroke:none;fill-rule:nonzero;fill:rgb(92.156863%,92.156863%,92.156863%);fill-opacity:1;" d="M 17.5 14.34375 L 12.519531 14.34375 L 12.175781 10.488281 L 17.5 10.488281 L 17.5 6.726562 L 8.0625 6.726562 L 8.152344 7.734375 L 9.078125 18.105469 L 17.5 18.105469 Z M 17.5 24.117188 L 17.484375 24.121094 L 13.292969 22.988281 L 13.023438 19.988281 L 9.246094 19.988281 L 9.773438 25.898438 L 17.484375 28.035156 L 17.5 28.03125 Z M 17.5 24.117188 "/>
<path style=" stroke:none;fill-rule:nonzero;fill:rgb(100%,100%,100%);fill-opacity:1;" d="M 17.488281 14.34375 L 17.488281 18.105469 L 22.121094 18.105469 L 21.683594 22.988281 L 17.488281 24.121094 L 17.488281 28.035156 L 25.203125 25.898438 L 25.257812 25.261719 L 26.144531 15.355469 L 26.234375 14.34375 Z M 17.488281 6.726562 L 17.488281 10.488281 L 26.578125 10.488281 L 26.652344 9.644531 L 26.824219 7.734375 L 26.914062 6.726562 Z M 17.488281 6.726562 "/>
</g>
</svg>
