<?xml version="1.0" encoding="UTF-8"?>
<svg xmlns="http://www.w3.org/2000/svg" xmlns:xlink="http://www.w3.org/1999/xlink" width="30px" height="30px" viewBox="0 0 30 42" version="1.1">
<g id="surface1">
<path style=" stroke:none;fill-rule:nonzero;fill:rgb(100%,100%,100%);fill-opacity:1;" d="M 0.101562 8.199219 L 0.105469 8.574219 C 0.109375 8.78125 0.710938 15.609375 1.445312 23.75 L 2.777344 38.550781 L 8.769531 40.214844 C 12.0625 41.132812 14.828125 41.886719 14.910156 41.890625 C 14.996094 41.894531 17.796875 41.148438 21.136719 40.230469 C 26.492188 38.761719 27.214844 38.539062 27.253906 38.355469 C 27.304688 38.101562 29.929688 8.738281 29.925781 8.425781 L 29.925781 8.199219 Z M 0.101562 8.199219 "/>
<path style=" stroke:none;fill-rule:nonzero;fill:rgb(91.764706%,92.156863%,92.54902%);fill-opacity:1;" d="M 8.816406 40.316406 L 2.769531 38.636719 L 2.691406 38.195312 C 2.621094 37.800781 0 8.738281 0 8.355469 C 0 8.214844 1.53125 8.199219 15.011719 8.199219 C 29.242188 8.199219 30.023438 8.210938 30.023438 8.375 C 30.019531 9.089844 27.304688 38.535156 27.238281 38.59375 C 27.15625 38.667969 15.453125 41.90625 15.0625 41.960938 C 14.953125 41.980469 12.140625 41.238281 8.816406 40.316406 Z M 18.824219 34.390625 C 20.855469 33.832031 22.546875 33.347656 22.585938 33.3125 C 22.621094 33.277344 22.859375 30.886719 23.113281 28 C 23.367188 25.113281 23.601562 22.558594 23.632812 22.324219 L 23.691406 21.898438 L 14.910156 21.898438 L 14.910156 25.601562 L 19.652344 25.601562 L 19.605469 25.824219 C 19.578125 25.949219 19.476562 27.011719 19.378906 28.1875 C 19.277344 29.433594 19.15625 30.375 19.085938 30.441406 C 19.023438 30.503906 18.058594 30.796875 16.941406 31.09375 L 14.910156 31.628906 L 14.910156 33.515625 C 14.910156 34.800781 14.945312 35.398438 15.019531 35.398438 C 15.082031 35.398438 16.792969 34.945312 18.824219 34.390625 Z M 23.632812 19.574219 C 23.566406 19.085938 22.972656 12.511719 22.972656 12.265625 C 22.972656 12.113281 22.625 12.101562 18.992188 12.101562 L 15.011719 12.101562 L 15.011719 15.96875 L 16.800781 16.039062 C 17.785156 16.074219 18.820312 16.132812 19.101562 16.164062 L 19.613281 16.222656 L 19.738281 17.738281 C 19.804688 18.570312 19.886719 19.417969 19.917969 19.625 L 19.976562 20 L 23.691406 20 Z M 23.632812 19.574219 "/>
<path style=" stroke:none;fill-rule:nonzero;fill:rgb(94.117647%,74.509804%,14.509804%);fill-opacity:1;" d="M 8.769531 40.214844 L 2.777344 38.550781 L 1.445312 23.75 C 0.710938 15.609375 0.109375 8.78125 0.105469 8.574219 L 0.101562 8.199219 L 29.925781 8.199219 L 29.925781 8.425781 C 29.929688 8.738281 27.304688 38.101562 27.253906 38.355469 C 27.214844 38.539062 26.492188 38.761719 21.136719 40.230469 C 17.796875 41.148438 14.996094 41.894531 14.910156 41.890625 C 14.828125 41.886719 12.0625 41.132812 8.769531 40.214844 Z M 18.828125 34.460938 C 20.902344 33.886719 22.625 33.371094 22.660156 33.316406 C 22.695312 33.257812 22.945312 30.746094 23.210938 27.730469 C 23.476562 24.714844 23.714844 22.171875 23.742188 22.074219 C 23.789062 21.910156 23.4375 21.898438 17.355469 21.898438 L 10.921875 21.898438 L 11.195312 19.023438 C 11.347656 17.445312 11.472656 16.144531 11.476562 16.140625 C 11.484375 16.136719 12.425781 16.105469 13.578125 16.074219 C 15.460938 16.023438 19.351562 16.171875 19.480469 16.300781 C 19.527344 16.347656 19.847656 19.460938 19.847656 19.886719 C 19.847656 20.097656 19.878906 20.101562 21.800781 20.101562 L 23.753906 20.101562 L 23.707031 19.675781 C 23.683594 19.441406 23.515625 17.628906 23.339844 15.648438 L 23.019531 12.050781 L 15.488281 12.023438 C 9.5 12.003906 7.960938 12.023438 7.957031 12.125 C 7.957031 12.195312 7.914062 12.632812 7.859375 13.101562 C 7.734375 14.230469 6.75 25.160156 6.75 25.464844 L 6.75 25.699219 L 19.5625 25.699219 L 19.507812 26.074219 C 19.476562 26.28125 19.375 27.328125 19.285156 28.398438 C 19.195312 29.472656 19.09375 30.378906 19.058594 30.410156 C 18.964844 30.5 15.195312 31.5 14.960938 31.5 C 14.851562 31.496094 13.875 31.257812 12.796875 30.960938 L 10.832031 30.429688 L 10.757812 29.589844 C 10.71875 29.128906 10.660156 28.46875 10.625 28.125 L 10.5625 27.5 L 6.75 27.5 L 6.753906 27.875 C 6.761719 28.578125 7.222656 33.300781 7.289062 33.367188 C 7.363281 33.441406 14.6875 35.484375 14.910156 35.492188 C 14.996094 35.496094 16.757812 35.03125 18.828125 34.460938 Z M 18.828125 34.460938 "/>
<path style=" stroke:none;fill-rule:nonzero;fill:rgb(89.411765%,63.137255%,14.901961%);fill-opacity:1;" d="M 8.769531 40.214844 L 2.777344 38.550781 L 1.445312 23.75 C 0.710938 15.609375 0.109375 8.78125 0.105469 8.574219 L 0.101562 8.199219 L 29.925781 8.199219 L 29.925781 8.425781 C 29.929688 8.738281 27.304688 38.101562 27.253906 38.355469 C 27.214844 38.539062 26.492188 38.761719 21.136719 40.230469 C 17.796875 41.148438 14.996094 41.894531 14.910156 41.890625 C 14.828125 41.886719 12.0625 41.132812 8.769531 40.214844 Z M 19.941406 37.988281 C 22.578125 37.265625 24.785156 36.625 24.84375 36.5625 C 24.941406 36.464844 27.214844 11.703125 27.207031 10.875 L 27.203125 10.601562 L 15.011719 10.601562 L 15.011719 12 L 11.484375 12 C 8.734375 12 7.960938 12.027344 7.957031 12.125 C 7.957031 12.195312 7.914062 12.632812 7.859375 13.101562 C 7.734375 14.230469 6.75 25.160156 6.75 25.464844 L 6.75 25.699219 L 15.011719 25.699219 L 15.011719 28.601562 C 15.011719 30.855469 14.984375 31.5 14.886719 31.5 C 14.816406 31.496094 13.875 31.257812 12.796875 30.960938 L 10.832031 30.429688 L 10.757812 29.589844 C 10.71875 29.128906 10.660156 28.46875 10.625 28.125 L 10.5625 27.5 L 6.75 27.5 L 6.753906 27.875 C 6.765625 28.949219 7.234375 33.324219 7.34375 33.394531 C 7.410156 33.433594 9.164062 33.933594 11.238281 34.503906 L 15.011719 35.539062 L 15.011719 37.421875 C 15.011719 38.453125 15.042969 39.300781 15.082031 39.300781 C 15.121094 39.300781 17.308594 38.710938 19.941406 37.988281 Z M 11.183594 19.050781 C 11.332031 17.484375 11.46875 16.1875 11.492188 16.164062 C 11.515625 16.144531 12.320312 16.101562 13.273438 16.078125 L 15.011719 16.03125 L 15.011719 21.898438 L 10.921875 21.898438 Z M 11.183594 19.050781 "/>
<path style=" stroke:none;fill-rule:nonzero;fill:rgb(5.490196%,5.490196%,5.882353%);fill-opacity:1;" d="M 9.570312 4.648438 L 9.570312 3.699219 L 12.292969 3.699219 L 12.292969 0 L 14.207031 0 L 14.207031 5.601562 L 9.570312 5.601562 Z M 15.113281 4.851562 L 15.113281 4.101562 L 16.371094 4.101562 C 17.066406 4.101562 17.632812 4.074219 17.632812 4.042969 C 17.632812 4.011719 17.066406 3.378906 16.371094 2.632812 L 15.113281 1.277344 L 15.113281 0 L 20.351562 0 L 20.351562 1.492188 L 19.121094 1.523438 L 17.894531 1.550781 L 19.171875 2.917969 L 20.453125 4.285156 L 20.453125 5.601562 L 15.113281 5.601562 Z M 15.113281 4.851562 "/>
</g>
</svg>
