<?xml version="1.0" encoding="UTF-8"?>
<svg xmlns="http://www.w3.org/2000/svg" xmlns:xlink="http://www.w3.org/1999/xlink" width="30px" height="30px" viewBox="0 0 30 13" version="1.1">
<defs>
<linearGradient id="linear0" gradientUnits="userSpaceOnUse" x1="464.315" y1="532.26703" x2="464.315" y2="108.459" gradientTransform="matrix(0.0312175,0,0,-0.030303,0.615351,16.20882)">
<stop offset="0.1497" style="stop-color:rgb(16.470588%,30.980392%,51.764706%);stop-opacity:1;"/>
<stop offset="0.3884" style="stop-color:rgb(16.078431%,30.588235%,50.980392%);stop-opacity:1;"/>
<stop offset="1" style="stop-color:rgb(9.019608%,18.039216%,30.588235%);stop-opacity:1;"/>
</linearGradient>
</defs>
<g id="surface1">
<path style=" stroke:none;fill-rule:nonzero;fill:url(#linear0);" d="M 28.386719 10.445312 C 28.386719 11.808594 27.238281 12.921875 25.835938 12.921875 L 4.386719 12.921875 C 2.984375 12.921875 1.835938 11.808594 1.835938 10.445312 L 1.835938 2.554688 C 1.835938 1.195312 2.984375 0.078125 4.386719 0.078125 L 25.835938 0.078125 C 27.238281 0.078125 28.386719 1.195312 28.386719 2.554688 Z M 28.386719 10.445312 "/>
<path style=" stroke:none;fill-rule:nonzero;fill:rgb(96.470588%,96.470588%,96.470588%);fill-opacity:1;" d="M 23.898438 6.332031 C 25.019531 6.714844 25.582031 7.367188 25.582031 8.289062 C 25.582031 8.894531 25.347656 9.378906 24.882812 9.734375 C 24.421875 10.089844 23.761719 10.3125 22.898438 10.3125 C 22.039062 10.3125 21.246094 10.070312 20.511719 9.671875 C 20.519531 9.464844 20.578125 9.230469 20.683594 8.980469 C 20.789062 8.730469 20.914062 8.53125 21.054688 8.386719 C 21.726562 8.726562 22.316406 8.894531 22.8125 8.894531 C 23.046875 8.894531 23.230469 8.855469 23.355469 8.78125 C 23.480469 8.703125 23.546875 8.601562 23.546875 8.46875 C 23.546875 8.226562 23.351562 8.042969 22.964844 7.921875 L 22.269531 7.667969 C 21.214844 7.296875 20.6875 6.6875 20.6875 5.84375 C 20.6875 5.230469 20.910156 4.742188 21.351562 4.378906 C 21.792969 4.019531 22.390625 3.710938 23.140625 3.710938 C 23.511719 3.710938 23.917969 3.761719 24.367188 3.863281 C 24.8125 3.964844 25.179688 4.214844 25.464844 4.351562 C 25.480469 4.578125 25.433594 4.828125 25.328125 5.097656 C 25.214844 5.371094 25.082031 5.5625 24.921875 5.675781 C 24.214844 5.367188 23.625 5.214844 23.152344 5.214844 C 22.984375 5.214844 22.855469 5.25 22.765625 5.324219 C 22.675781 5.394531 22.632812 5.488281 22.632812 5.601562 C 22.632812 5.796875 22.792969 5.949219 23.113281 6.0625 Z M 23.898438 6.332031 "/>
<path style=" stroke:none;fill-rule:nonzero;fill:rgb(96.470588%,96.470588%,96.470588%);fill-opacity:1;" d="M 18.300781 6.332031 C 19.421875 6.714844 19.980469 7.367188 19.980469 8.289062 C 19.980469 8.894531 19.75 9.378906 19.285156 9.734375 C 18.820312 10.089844 18.160156 10.3125 17.300781 10.3125 C 16.441406 10.3125 15.644531 10.070312 14.914062 9.671875 C 14.921875 9.464844 14.976562 9.230469 15.082031 8.980469 C 15.1875 8.730469 15.3125 8.53125 15.457031 8.386719 C 16.128906 8.726562 16.714844 8.894531 17.214844 8.894531 C 17.449219 8.894531 17.628906 8.855469 17.757812 8.78125 C 17.882812 8.703125 17.945312 8.601562 17.945312 8.46875 C 17.945312 8.226562 17.753906 8.042969 17.363281 7.921875 L 16.667969 7.667969 C 15.617188 7.296875 15.089844 6.6875 15.089844 5.84375 C 15.089844 5.230469 15.308594 4.742188 15.753906 4.378906 C 16.195312 4.019531 16.792969 3.710938 17.542969 3.710938 C 17.910156 3.710938 18.320312 3.761719 18.765625 3.863281 C 19.214844 3.964844 19.578125 4.214844 19.867188 4.351562 C 19.882812 4.578125 19.835938 4.828125 19.726562 5.097656 C 19.617188 5.371094 19.484375 5.5625 19.324219 5.675781 C 18.613281 5.367188 18.023438 5.214844 17.554688 5.214844 C 17.382812 5.214844 17.257812 5.25 17.167969 5.324219 C 17.078125 5.394531 17.035156 5.488281 17.035156 5.601562 C 17.035156 5.796875 17.195312 5.949219 17.515625 6.0625 Z M 18.300781 6.332031 "/>
<path style=" stroke:none;fill-rule:nonzero;fill:rgb(96.470588%,96.470588%,96.470588%);fill-opacity:1;" d="M 14.21875 6.417969 C 14.21875 6.046875 14.15625 5.703125 14.035156 5.386719 C 13.910156 5.070312 13.738281 4.796875 13.507812 4.570312 C 13.28125 4.34375 13.007812 4.164062 12.683594 4.035156 C 12.355469 3.90625 11.992188 3.710938 11.589844 3.710938 C 11.109375 3.710938 10.6875 3.921875 10.332031 4.085938 C 9.972656 4.246094 9.679688 4.46875 9.445312 4.753906 C 9.214844 5.035156 9.042969 5.371094 8.929688 5.753906 C 8.8125 6.140625 8.757812 6.558594 8.757812 7.011719 C 8.757812 7.484375 8.804688 7.917969 8.898438 8.3125 C 8.988281 8.710938 9.148438 9.054688 9.371094 9.347656 C 9.59375 9.636719 9.882812 9.863281 10.242188 10.027344 C 10.601562 10.1875 11.046875 10.3125 11.574219 10.3125 C 12.554688 10.3125 13.378906 10.039062 14.054688 9.578125 C 13.988281 9.105469 13.8125 8.734375 13.539062 8.457031 C 13.191406 8.582031 12.886719 8.671875 12.625 8.730469 C 12.359375 8.785156 12.125 8.8125 11.925781 8.8125 C 11.523438 8.8125 11.234375 8.710938 11.058594 8.511719 C 10.882812 8.308594 10.785156 8.074219 10.765625 7.714844 L 14.054688 7.714844 C 14.164062 7.371094 14.21875 6.914062 14.21875 6.417969 Z M 10.753906 6.503906 C 10.78125 6.089844 10.859375 5.644531 10.988281 5.464844 C 11.117188 5.28125 11.316406 5.191406 11.582031 5.191406 C 11.859375 5.191406 12.066406 5.289062 12.203125 5.480469 C 12.339844 5.675781 12.410156 6.066406 12.410156 6.367188 L 12.410156 6.503906 Z M 10.753906 6.503906 "/>
<path style="fill-rule:nonzero;fill:rgb(96.470588%,96.470588%,96.470588%);fill-opacity:1;stroke-width:5.1509;stroke-linecap:butt;stroke-linejoin:miter;stroke:rgb(25.098039%,25.098039%,25.098039%);stroke-opacity:1;stroke-miterlimit:10;" d="M 799.936979 559.15625 C 788.55013 569.082031 781.918229 583.519531 781.918229 602.339844 L 781.918229 672.335938 C 781.918229 695.539062 774.660677 713.328125 758.51888 725.445312 C 742.377083 737.691406 723.607552 743.621094 702.085156 744.265625 L 689.321875 744.136719 L 689.321875 709.203125 C 700.583594 705.980469 705.213411 702.113281 709.592969 697.859375 C 717.726432 690.511719 723.982943 678.652344 723.982943 662.023438 L 723.982943 605.5625 C 724.233203 586.355469 725.734766 571.273438 732.742057 560.445312 C 739.749349 549.488281 753.388542 539.949219 773.784766 531.828125 C 751.261328 521.515625 736.245703 508.109375 728.48763 491.480469 C 723.982943 481.683594 723.982943 468.40625 723.982943 451.777344 L 723.982943 399.957031 C 723.982943 382.8125 718.352083 370.824219 711.469922 363.992188 C 706.965234 359.480469 701.709766 355.871094 689.321875 353.164063 L 689.321875 320.421875 C 704.46263 320.550781 712.220703 320.421875 720.979818 320.421875 C 734.61901 320.292969 746.005859 327.769531 755.891146 335.503906 C 766.777474 344.011719 774.410417 355.484375 778.915104 370.050781 C 781.542839 378.300781 781.918229 386.292969 781.918229 393.898438 L 781.918229 453.839844 C 781.918229 475.109375 788.17474 490.835938 798.810807 501.148438 C 804.817057 507.078125 813.325911 512.492188 827.966146 517.390625 L 827.966146 544.589844 C 815.077734 548.070312 806.944271 552.96875 799.936979 559.15625 Z M 799.936979 559.15625 " transform="matrix(0.0312175,0,0,0.030303,4.074857,-9.631629)"/>
<path style="fill-rule:nonzero;fill:rgb(96.470588%,96.470588%,96.470588%);fill-opacity:1;stroke-width:5.1509;stroke-linecap:butt;stroke-linejoin:miter;stroke:rgb(25.098039%,25.098039%,25.098039%);stroke-opacity:1;stroke-miterlimit:10;" d="M -5.275911 320.421875 L -5.275911 320.550781 C -9.655469 320.550781 -13.534505 320.421875 -16.66276 320.421875 C -30.301953 320.421875 -41.688802 327.769531 -51.574089 335.503906 C -62.460417 344.011719 -71.720052 355.097656 -74.598047 370.050781 C -76.22474 378.6875 -75.849349 386.292969 -75.849349 394.027344 L -75.849349 453.96875 C -75.849349 475.109375 -83.732552 490.835938 -94.49375 501.148438 C -100.5 507.078125 -113.388411 512.492188 -127.903516 517.519531 L -127.903516 544.589844 C -115.015104 548.199219 -102.502083 552.96875 -95.619922 559.15625 C -84.107943 569.082031 -75.974479 583.519531 -75.974479 602.339844 L -75.974479 672.335938 C -75.974479 695.667969 -70.34362 713.328125 -54.201823 725.445312 C -38.060026 737.691406 -19.290495 743.75 2.231901 744.265625 L 16.621875 744.136719 L 16.621875 709.203125 C 5.360156 705.980469 -0.771224 702.113281 -5.275911 697.859375 C -13.409375 690.511719 -18.039193 678.652344 -18.039193 662.152344 L -18.039193 605.5625 C -18.289453 586.355469 -21.417708 571.273438 -28.425 560.445312 C -35.432292 549.488281 -49.071484 539.949219 -69.467708 531.828125 C -46.944271 521.515625 -31.928646 508.109375 -24.170573 491.609375 C -19.665885 481.683594 -18.039193 468.535156 -18.039193 451.777344 L -18.039193 399.957031 C -18.039193 382.8125 -14.035026 370.824219 -7.152865 363.992188 C -3.398958 360.253906 3.232943 357.160156 12.492578 354.710938 L 27.132812 354.839844 C 27.132812 342.207031 27.132812 334.34375 27.132812 320.421875 Z M -5.275911 320.421875 " transform="matrix(0.0312175,0,0,0.030303,4.074857,-9.631629)"/>
<path style=" stroke:none;fill-rule:nonzero;fill:rgb(96.470588%,96.470588%,96.470588%);fill-opacity:1;" d="M 8.113281 8.691406 L 7.773438 8.691406 C 7.402344 8.691406 7.261719 8.5 7.261719 8.121094 L 7.261719 1.128906 C 7.261719 0.707031 7.136719 0.410156 6.976562 0.242188 C 6.816406 0.0742188 6.539062 0.0742188 6.140625 0.0742188 L 5.28125 0.0742188 L 5.28125 0.078125 L 5.277344 1.121094 L 5.277344 8.457031 C 5.277344 9.042969 5.414062 9.46875 5.65625 9.742188 C 5.894531 10.011719 6.300781 10.148438 6.875 10.148438 C 7.269531 10.148438 7.722656 10.105469 8.226562 10.027344 C 8.25 9.945312 8.265625 9.769531 8.265625 9.5 C 8.265625 9.230469 8.214844 8.960938 8.113281 8.691406 Z M 8.113281 8.691406 "/>
</g>
</svg>
