<?xml version="1.0" encoding="UTF-8"?>
<svg xmlns="http://www.w3.org/2000/svg" xmlns:xlink="http://www.w3.org/1999/xlink" width="35px" height="px" viewBox="0 0 35 35" version="1.1">
<g id="surface1">
<path style=" stroke:none;fill-rule:nonzero;fill:rgb(0%,38.039216%,54.117647%);fill-opacity:1;" d="M 0.546875 24.734375 L 1.671875 24.734375 L 1.671875 20.296875 L 3.410156 24.164062 C 3.613281 24.632812 3.894531 24.800781 4.445312 24.800781 C 4.996094 24.800781 5.265625 24.632812 5.472656 24.164062 L 7.210938 20.296875 L 7.210938 24.734375 L 8.335938 24.734375 L 8.335938 20.304688 C 8.335938 19.875 8.164062 19.664062 7.804688 19.558594 C 6.953125 19.289062 6.378906 19.519531 6.121094 20.097656 L 4.414062 23.914062 L 2.761719 20.097656 C 2.511719 19.519531 1.929688 19.289062 1.078125 19.558594 C 0.71875 19.664062 0.546875 19.875 0.546875 20.304688 Z M 9.269531 21.125 L 10.390625 21.125 L 10.390625 23.566406 C 10.382812 23.699219 10.433594 24.011719 11.050781 24.023438 C 11.363281 24.027344 13.472656 24.023438 13.492188 24.023438 L 13.492188 21.113281 L 14.617188 21.113281 C 14.625 21.113281 14.617188 25.082031 14.617188 25.097656 C 14.625 26.074219 13.402344 26.289062 12.839844 26.304688 L 9.292969 26.304688 L 9.292969 25.546875 C 9.300781 25.546875 12.839844 25.550781 12.847656 25.546875 C 13.570312 25.472656 13.484375 25.113281 13.484375 24.992188 L 13.484375 24.695312 L 11.097656 24.695312 C 9.984375 24.6875 9.277344 24.203125 9.269531 23.644531 C 9.269531 23.59375 9.292969 21.148438 9.269531 21.125 Z M 9.269531 21.125 "/>
<path style=" stroke:none;fill-rule:nonzero;fill:rgb(89.411765%,55.686275%,0%);fill-opacity:1;" d="M 15.484375 24.734375 L 18.714844 24.734375 C 19.09375 24.734375 19.460938 24.65625 19.75 24.519531 C 20.238281 24.296875 20.476562 23.992188 20.476562 23.597656 L 20.476562 22.777344 C 20.476562 22.453125 20.207031 22.148438 19.675781 21.949219 C 19.394531 21.839844 19.050781 21.78125 18.714844 21.78125 L 17.351562 21.78125 C 16.898438 21.78125 16.683594 21.644531 16.628906 21.34375 C 16.617188 21.308594 16.617188 21.277344 16.617188 21.242188 L 16.617188 20.730469 C 16.617188 20.703125 16.617188 20.671875 16.628906 20.636719 C 16.683594 20.40625 16.800781 20.34375 17.203125 20.304688 L 17.308594 20.300781 L 20.519531 20.300781 L 20.519531 19.550781 L 17.363281 19.550781 C 16.910156 19.550781 16.671875 19.578125 16.457031 19.644531 C 15.789062 19.851562 15.496094 20.183594 15.496094 20.761719 L 15.496094 21.414062 C 15.496094 21.917969 16.066406 22.351562 17.03125 22.453125 C 17.136719 22.460938 17.246094 22.46875 17.351562 22.46875 L 18.519531 22.46875 C 18.5625 22.46875 18.605469 22.46875 18.640625 22.472656 C 18.996094 22.503906 19.148438 22.566406 19.253906 22.695312 C 12.988281 21.746094 8.675781 15.894531 9.628906 9.628906 C 10.578125 3.359375 16.429688 -0.949219 22.695312 0 L 22.695312 0.65625 C 22.695312 0.734375 22.644531 0.835938 22.535156 0.921875 C 22.4375 1.007812 22.277344 1.066406 22.058594 1.082031 L 21.941406 1.085938 L 15.484375 1.085938 Z M 27.484375 23.429688 C 27.484375 24.203125 28.054688 24.632812 29.210938 24.71875 C 29.320312 24.726562 29.425781 24.734375 29.535156 24.734375 L 32.464844 24.734375 L 32.464844 23.984375 L 29.515625 23.984375 C 28.855469 23.984375 28.605469 23.820312 28.605469 23.425781 L 28.605469 19.550781 L 27.484375 19.550781 Z M 21.191406 23.46875 L 21.191406 20.800781 C 21.191406 20.121094 21.667969 19.710938 22.609375 19.582031 C 17.203125 20.417969 12.140625 16.710938 11.304688 11.304688 C 10.46875 5.898438 14.171875 0.835938 19.582031 0 L 21.714844 0 C 21.820312 0 21.917969 0.0078125 22.027344 0.0234375 C 22.96875 0.152344 23.445312 0.5625 23.445312 1.242188 L 23.445312 3.910156 C 23.445312 4.460938 23.242188 4.757812 22.777344 4.949219 L 23.882812 5.945312 L 22.578125 5.945312 L 21.683594 5.140625 L 20.78125 5.195312 L 19.582031 5.195312 C 18.144531 5.222656 16.960938 4.078125 16.9375 2.644531 C 16.910156 1.210938 18.050781 0.0273438 19.488281 0 C 18.773438 -0.195312 18.425781 -0.570312 18.425781 -1.191406 Z M 22.40625 23.40625 C 22.40625 23.441406 22.414062 23.476562 22.425781 23.519531 C 22.492188 23.832031 22.785156 24.003906 23.226562 24.003906 L 24.246094 24.003906 L 23.308594 23.160156 L 24.613281 23.160156 L 25.433594 23.898438 C 25.582031 23.816406 25.683594 23.695312 25.71875 23.535156 C 25.726562 23.5 25.726562 23.464844 25.726562 23.425781 L 25.726562 20.867188 C 25.726562 20.835938 25.726562 20.800781 25.71875 20.765625 C 25.652344 20.476562 25.359375 20.308594 24.925781 20.308594 L 23.226562 20.308594 C 22.730469 20.308594 22.40625 20.527344 22.40625 20.867188 Z M 22.40625 23.40625 "/>
<path style=" stroke:none;fill-rule:nonzero;fill:rgb(0%,38.039216%,54.117647%);fill-opacity:1;" d="M 33.453125 18.308594 C 32.761719 18.289062 32.234375 18.351562 31.78125 18.542969 C 31.652344 18.597656 31.449219 18.597656 31.429688 18.757812 C 31.5 18.832031 31.511719 18.941406 31.566406 19.035156 C 31.675781 19.207031 31.855469 19.441406 32.019531 19.5625 C 32.195312 19.699219 32.378906 19.839844 32.566406 19.957031 C 32.90625 20.164062 33.28125 20.28125 33.609375 20.488281 C 33.800781 20.609375 33.992188 20.761719 34.179688 20.898438 C 34.269531 20.964844 34.332031 21.074219 34.453125 21.113281 L 34.453125 21.09375 C 34.390625 21.015625 34.375 20.90625 34.316406 20.820312 L 34.058594 20.566406 C 33.808594 20.234375 33.492188 19.941406 33.15625 19.703125 C 32.886719 19.507812 32.285156 19.246094 32.175781 18.933594 L 32.15625 18.914062 C 32.34375 18.894531 32.570312 18.824219 32.742188 18.777344 C 33.039062 18.699219 33.304688 18.71875 33.609375 18.640625 L 34.019531 18.523438 L 34.019531 18.445312 C 33.867188 18.285156 33.757812 18.078125 33.589844 17.933594 C 33.148438 17.558594 32.667969 17.1875 32.175781 16.875 C 31.902344 16.699219 31.5625 16.589844 31.269531 16.441406 C 31.175781 16.390625 31.003906 16.367188 30.9375 16.285156 C 30.785156 16.089844 30.703125 15.84375 30.582031 15.617188 C 27.875 27.84375 16.675781 36.28125 4.175781 35.511719 C -8.320312 34.742188 -18.402344 24.996094 -19.59375 12.53125 C -20.785156 0.0664062 -12.730469 -11.410156 -0.605469 -14.535156 C 11.519531 -17.65625 24.117188 -11.492188 29.089844 0 C 28.941406 -0.339844 28.84375 -0.675781 28.660156 -0.980469 C 27.769531 -2.449219 26.808594 -3.332031 25.320312 -4.203125 C 25.003906 -4.386719 24.625 -4.460938 24.222656 -4.554688 L 23.574219 -4.59375 C 23.441406 -4.648438 23.304688 -4.8125 23.179688 -4.890625 C 22.6875 -5.199219 21.425781 -5.878906 21.0625 -4.988281 C 20.832031 -4.425781 21.40625 -3.878906 21.609375 -3.59375 C 21.753906 -3.394531 21.941406 -3.167969 22.042969 -2.945312 C 22.109375 -2.796875 22.121094 -2.648438 22.179688 -2.492188 C 22.324219 -2.109375 22.445312 -1.691406 22.632812 -1.335938 C 22.726562 -1.15625 22.828125 -0.964844 22.945312 -0.804688 C 23.019531 -0.707031 23.140625 -0.664062 23.160156 -0.511719 C 23.039062 -0.339844 23.035156 -0.078125 22.964844 0.136719 C 22.660156 1.105469 22.773438 2.308594 23.21875 3.023438 C 23.359375 3.246094 23.679688 3.714844 24.125 3.535156 C 24.511719 3.375 24.425781 2.886719 24.535156 2.453125 C 24.5625 2.355469 24.546875 2.285156 24.59375 2.21875 L 24.59375 2.238281 L 24.949219 2.945312 C 25.210938 3.367188 25.675781 3.808594 26.066406 4.105469 C 26.273438 4.257812 26.433594 4.523438 26.695312 4.613281 L 26.695312 4.59375 L 26.675781 4.59375 C 26.625 4.515625 26.546875 4.484375 26.480469 4.417969 C 26.328125 4.265625 26.15625 4.082031 26.027344 3.90625 C 25.671875 3.421875 25.355469 2.890625 25.066406 2.335938 C 24.929688 2.074219 24.808594 1.78125 24.695312 1.511719 C 24.648438 1.410156 24.648438 1.25 24.554688 1.199219 C 24.429688 1.394531 24.242188 1.554688 24.144531 1.789062 C 23.988281 2.160156 23.964844 2.613281 23.910156 3.082031 L 23.867188 3.101562 C 23.59375 3.035156 23.5 2.753906 23.398438 2.511719 C 23.140625 1.902344 23.09375 0.917969 23.320312 0.214844 C 23.378906 0.0351562 23.640625 -0.539062 23.535156 -0.707031 C 23.484375 -0.875 23.316406 -0.972656 23.222656 -1.101562 C 24.191406 -2.339844 25.945312 -2.640625 27.277344 -1.796875 C 28.605469 -0.957031 29.082031 0.757812 28.378906 2.167969 C 27.675781 3.574219 26.019531 4.222656 24.546875 3.664062 C 23.074219 3.105469 22.261719 1.519531 22.671875 0 C 22.460938 -0.476562 22.363281 -1.011719 22.140625 -1.492188 C 22.035156 -1.722656 21.855469 -1.953125 21.710938 -2.160156 C 21.546875 -2.386719 21.363281 -2.554688 21.238281 -2.828125 C 21.191406 -2.925781 21.132812 -3.082031 21.199219 -3.179688 C 21.21875 -3.25 21.25 -3.277344 21.316406 -3.296875 C 21.429688 -3.386719 21.746094 -3.269531 21.867188 -3.21875 C 22.179688 -3.089844 22.445312 -2.964844 22.710938 -2.789062 C 22.839844 -2.703125 22.96875 -2.539062 23.121094 -2.492188 L 23.300781 -2.492188 C 23.574219 -2.429688 23.886719 -2.472656 24.144531 -2.394531 C 24.601562 -2.257812 25.007812 -2.042969 25.382812 -1.804688 C 26.511719 -1.09375 27.4375 -0.0742188 28.070312 1.140625 C 28.171875 1.335938 28.21875 1.519531 28.304688 1.726562 C 28.488281 2.144531 28.714844 2.574219 28.894531 2.984375 C 29.074219 3.390625 29.25 3.804688 29.503906 4.144531 C 29.636719 4.320312 30.152344 4.417969 30.386719 4.515625 C 30.550781 4.585938 30.820312 4.65625 30.976562 4.75 C 31.273438 4.929688 31.5625 5.144531 31.839844 5.339844 C 31.980469 5.441406 32.410156 5.65625 32.429688 5.832031 Z M 24.675781 10.828125 C 21.683594 10.816406 19.269531 8.382812 19.28125 5.394531 C 19.292969 2.402344 21.722656 -0.0117188 24.714844 0 L 24.714844 0.0195312 L 24.734375 0.0195312 C 24.800781 0.160156 24.921875 0.25 25.007812 0.371094 L 25.203125 0.785156 L 25.222656 0.765625 C 25.347656 0.679688 25.402344 0.542969 25.402344 0.332031 C 25.351562 0.28125 25.34375 0.21875 25.300781 0.15625 C 25.246094 0.0742188 25.136719 0.0273438 25.066406 -0.0390625 Z M 24.675781 10.828125 "/>
</g>
</svg>
