<?xml version="1.0" encoding="UTF-8"?>
<svg xmlns="http://www.w3.org/2000/svg" xmlns:xlink="http://www.w3.org/1999/xlink" width="30px" height="30px" viewBox="0 0 30 15" version="1.1">
<g id="surface1">
<path style=" stroke:none;fill-rule:nonzero;fill:rgb(0%,38.039216%,54.117647%);fill-opacity:1;" d="M 0.0546875 13.675781 C 0.0546875 13.675781 1.042969 13.675781 1.042969 13.675781 C 1.042969 13.675781 1.042969 9.90625 1.042969 9.90625 C 1.042969 9.90625 2.566406 13.195312 2.566406 13.195312 C 2.746094 13.59375 2.992188 13.734375 3.476562 13.734375 C 3.957031 13.734375 4.195312 13.59375 4.375 13.195312 C 4.375 13.195312 5.898438 9.90625 5.898438 9.90625 C 5.898438 9.90625 5.898438 13.675781 5.898438 13.675781 C 5.898438 13.675781 6.882812 13.675781 6.882812 13.675781 C 6.882812 13.675781 6.882812 9.910156 6.882812 9.910156 C 6.882812 9.542969 6.734375 9.367188 6.421875 9.273438 C 5.671875 9.046875 5.171875 9.242188 4.941406 9.734375 C 4.941406 9.734375 3.445312 12.980469 3.445312 12.980469 C 3.445312 12.980469 1.996094 9.734375 1.996094 9.734375 C 1.78125 9.242188 1.269531 9.046875 0.519531 9.273438 C 0.207031 9.367188 0.0546875 9.542969 0.0546875 9.910156 C 0.0546875 9.910156 0.0546875 13.675781 0.0546875 13.675781 Z M 0.0546875 13.675781 "/>
<path style=" stroke:none;fill-rule:nonzero;fill:rgb(0%,38.039216%,54.117647%);fill-opacity:1;" d="M 7.703125 10.605469 C 7.703125 10.605469 8.6875 10.605469 8.6875 10.605469 C 8.6875 10.605469 8.6875 12.683594 8.6875 12.683594 C 8.679688 12.796875 8.726562 13.0625 9.265625 13.070312 C 9.539062 13.074219 11.386719 13.070312 11.40625 13.070312 C 11.40625 13.070312 11.40625 10.597656 11.40625 10.597656 C 11.40625 10.597656 12.390625 10.597656 12.390625 10.597656 C 12.398438 10.597656 12.390625 13.972656 12.390625 13.984375 C 12.398438 14.820312 11.328125 15 10.832031 15.011719 C 10.832031 15.011719 7.722656 15.011719 7.722656 15.011719 C 7.722656 15.011719 7.722656 14.371094 7.722656 14.371094 C 7.730469 14.371094 10.832031 14.371094 10.839844 14.371094 C 11.472656 14.304688 11.398438 14 11.398438 13.898438 C 11.398438 13.898438 11.398438 13.644531 11.398438 13.644531 C 11.398438 13.644531 9.304688 13.644531 9.304688 13.644531 C 8.332031 13.636719 7.710938 13.226562 7.703125 12.75 C 7.703125 12.707031 7.722656 10.628906 7.703125 10.605469 Z M 7.703125 10.605469 "/>
<path style=" stroke:none;fill-rule:nonzero;fill:rgb(89.411765%,55.686275%,0%);fill-opacity:1;" d="M 13.152344 13.675781 C 13.152344 13.675781 15.984375 13.675781 15.984375 13.675781 C 16.3125 13.675781 16.636719 13.609375 16.890625 13.492188 C 17.316406 13.304688 17.527344 13.046875 17.527344 12.710938 C 17.527344 12.710938 17.527344 12.011719 17.527344 12.011719 C 17.527344 11.734375 17.289062 11.480469 16.824219 11.308594 C 16.578125 11.214844 16.277344 11.167969 15.984375 11.167969 C 15.984375 11.167969 14.789062 11.167969 14.789062 11.167969 C 14.390625 11.167969 14.203125 11.050781 14.15625 10.792969 C 14.144531 10.761719 14.144531 10.738281 14.144531 10.707031 C 14.144531 10.707031 14.144531 10.273438 14.144531 10.273438 C 14.144531 10.246094 14.144531 10.222656 14.15625 10.191406 C 14.203125 9.996094 14.308594 9.941406 14.65625 9.910156 C 14.6875 9.910156 14.722656 9.90625 14.75 9.90625 C 14.75 9.90625 17.5625 9.90625 17.5625 9.90625 C 17.5625 9.90625 17.5625 9.269531 17.5625 9.269531 C 17.5625 9.269531 14.800781 9.269531 14.800781 9.269531 C 14.402344 9.269531 14.191406 9.292969 14.003906 9.347656 C 13.417969 9.523438 13.160156 9.804688 13.160156 10.296875 C 13.160156 10.296875 13.160156 10.855469 13.160156 10.855469 C 13.160156 11.28125 13.664062 11.648438 14.503906 11.734375 C 14.601562 11.742188 14.695312 11.75 14.789062 11.75 C 14.789062 11.75 15.8125 11.75 15.8125 11.75 C 15.851562 11.75 15.886719 11.75 15.917969 11.753906 C 16.230469 11.777344 16.363281 11.835938 16.457031 11.945312 C 16.511719 12 16.53125 12.054688 16.53125 12.117188 C 16.53125 12.117188 16.53125 12.671875 16.53125 12.671875 C 16.53125 12.742188 16.484375 12.828125 16.390625 12.898438 C 16.304688 12.972656 16.164062 13.023438 15.972656 13.035156 C 15.933594 13.035156 15.90625 13.039062 15.871094 13.039062 C 15.871094 13.039062 13.152344 13.039062 13.152344 13.039062 C 13.152344 13.039062 13.152344 13.675781 13.152344 13.675781 Z M 13.152344 13.675781 "/>
<path style=" stroke:none;fill-rule:nonzero;fill:rgb(89.411765%,55.686275%,0%);fill-opacity:1;" d="M 23.671875 12.570312 C 23.671875 13.222656 24.171875 13.59375 25.183594 13.664062 C 25.28125 13.671875 25.375 13.675781 25.46875 13.675781 C 25.46875 13.675781 28.035156 13.675781 28.035156 13.675781 C 28.035156 13.675781 28.035156 13.039062 28.035156 13.039062 C 28.035156 13.039062 25.449219 13.039062 25.449219 13.039062 C 24.871094 13.039062 24.65625 12.898438 24.65625 12.5625 C 24.65625 12.5625 24.65625 9.269531 24.65625 9.269531 C 24.65625 9.269531 23.671875 9.269531 23.671875 9.269531 C 23.671875 9.269531 23.671875 12.570312 23.671875 12.570312 Z M 23.671875 12.570312 "/>
<path style=" stroke:none;fill-rule:nonzero;fill:rgb(89.411765%,55.686275%,0%);fill-opacity:1;" d="M 18.15625 12.601562 C 18.15625 12.601562 18.15625 10.332031 18.15625 10.332031 C 18.15625 9.753906 18.574219 9.40625 19.398438 9.292969 C 19.484375 9.28125 19.578125 9.277344 19.664062 9.277344 C 19.664062 9.277344 21.53125 9.277344 21.53125 9.277344 C 21.628906 9.277344 21.714844 9.28125 21.808594 9.292969 C 22.632812 9.40625 23.050781 9.753906 23.050781 10.332031 C 23.050781 10.332031 23.050781 12.601562 23.050781 12.601562 C 23.050781 13.070312 22.875 13.320312 22.464844 13.484375 C 22.464844 13.484375 23.433594 14.332031 23.433594 14.332031 C 23.433594 14.332031 22.292969 14.332031 22.292969 14.332031 C 22.292969 14.332031 21.507812 13.648438 21.507812 13.648438 C 21.507812 13.648438 20.71875 13.695312 20.71875 13.695312 C 20.71875 13.695312 19.664062 13.695312 19.664062 13.695312 C 19.484375 13.695312 19.292969 13.671875 19.085938 13.617188 C 18.457031 13.449219 18.15625 13.128906 18.15625 12.601562 Z M 19.21875 12.546875 C 19.21875 12.578125 19.226562 12.609375 19.238281 12.644531 C 19.292969 12.910156 19.550781 13.058594 19.9375 13.058594 C 19.9375 13.058594 20.832031 13.058594 20.832031 13.058594 C 20.832031 13.058594 20.011719 12.335938 20.011719 12.335938 C 20.011719 12.335938 21.15625 12.335938 21.15625 12.335938 C 21.15625 12.335938 21.871094 12.964844 21.871094 12.964844 C 22.003906 12.894531 22.089844 12.792969 22.121094 12.65625 C 22.132812 12.628906 22.132812 12.597656 22.132812 12.566406 C 22.132812 12.566406 22.132812 10.386719 22.132812 10.386719 C 22.132812 10.363281 22.132812 10.332031 22.121094 10.300781 C 22.066406 10.054688 21.808594 9.914062 21.429688 9.914062 C 21.429688 9.914062 19.9375 9.914062 19.9375 9.914062 C 19.503906 9.914062 19.21875 10.097656 19.21875 10.386719 C 19.21875 10.386719 19.21875 12.546875 19.21875 12.546875 Z M 19.21875 12.546875 "/>
<path style=" stroke:none;fill-rule:nonzero;fill:rgb(0%,38.039216%,54.117647%);fill-opacity:1;" d="M 28.902344 8.210938 C 28.296875 8.195312 27.832031 8.25 27.4375 8.410156 C 27.328125 8.457031 27.148438 8.457031 27.128906 8.59375 C 27.191406 8.65625 27.199219 8.75 27.25 8.828125 C 27.34375 8.976562 27.503906 9.175781 27.644531 9.28125 C 27.800781 9.394531 27.960938 9.515625 28.128906 9.613281 C 28.421875 9.789062 28.753906 9.890625 29.039062 10.066406 C 29.207031 10.167969 29.375 10.296875 29.539062 10.414062 C 29.621094 10.472656 29.675781 10.5625 29.78125 10.597656 C 29.78125 10.59375 29.78125 10.589844 29.78125 10.582031 C 29.722656 10.515625 29.710938 10.421875 29.660156 10.347656 C 29.585938 10.277344 29.511719 10.203125 29.433594 10.132812 C 29.214844 9.851562 28.9375 9.601562 28.644531 9.398438 C 28.40625 9.234375 27.882812 9.011719 27.78125 8.746094 C 27.777344 8.738281 27.769531 8.734375 27.765625 8.730469 C 27.933594 8.710938 28.128906 8.652344 28.28125 8.613281 C 28.539062 8.542969 28.773438 8.5625 29.039062 8.496094 C 29.160156 8.460938 29.28125 8.429688 29.402344 8.394531 C 29.402344 8.371094 29.402344 8.351562 29.402344 8.328125 C 29.265625 8.191406 29.167969 8.015625 29.023438 7.894531 C 28.636719 7.574219 28.214844 7.257812 27.78125 6.992188 C 27.542969 6.84375 27.246094 6.75 26.992188 6.625 C 26.90625 6.582031 26.753906 6.5625 26.699219 6.492188 C 26.566406 6.324219 26.492188 6.117188 26.386719 5.921875 C 26.171875 5.519531 25.960938 5.078125 25.769531 4.652344 C 25.636719 4.363281 25.554688 4.078125 25.390625 3.820312 C 24.609375 2.570312 23.765625 1.820312 22.464844 1.078125 C 22.1875 0.921875 21.851562 0.859375 21.5 0.777344 C 21.3125 0.769531 21.121094 0.757812 20.933594 0.746094 C 20.816406 0.699219 20.695312 0.5625 20.585938 0.496094 C 20.15625 0.230469 19.046875 -0.34375 18.730469 0.410156 C 18.527344 0.890625 19.03125 1.355469 19.210938 1.597656 C 19.335938 1.765625 19.5 1.957031 19.589844 2.148438 C 19.648438 2.273438 19.660156 2.398438 19.710938 2.53125 C 19.835938 2.859375 19.945312 3.214844 20.105469 3.519531 C 20.1875 3.671875 20.277344 3.832031 20.382812 3.96875 C 20.445312 4.050781 20.554688 4.089844 20.570312 4.21875 C 20.464844 4.363281 20.457031 4.585938 20.398438 4.769531 C 20.128906 5.59375 20.230469 6.617188 20.621094 7.226562 C 20.742188 7.414062 21.023438 7.8125 21.414062 7.660156 C 21.753906 7.523438 21.679688 7.109375 21.777344 6.742188 C 21.796875 6.65625 21.785156 6.597656 21.828125 6.539062 C 21.828125 6.546875 21.828125 6.550781 21.828125 6.558594 C 21.929688 6.757812 22.035156 6.957031 22.136719 7.160156 C 22.367188 7.515625 22.773438 7.890625 23.117188 8.144531 C 23.296875 8.273438 23.4375 8.5 23.667969 8.578125 C 23.667969 8.574219 23.667969 8.566406 23.667969 8.5625 C 23.664062 8.5625 23.65625 8.5625 23.652344 8.5625 C 23.605469 8.492188 23.535156 8.464844 23.480469 8.410156 C 23.34375 8.285156 23.195312 8.125 23.082031 7.976562 C 22.769531 7.5625 22.492188 7.113281 22.242188 6.640625 C 22.121094 6.417969 22.015625 6.167969 21.914062 5.941406 C 21.875 5.851562 21.875 5.71875 21.792969 5.671875 C 21.679688 5.839844 21.515625 5.976562 21.429688 6.171875 C 21.292969 6.488281 21.277344 6.875 21.226562 7.277344 C 21.195312 7.285156 21.207031 7.277344 21.191406 7.292969 C 20.949219 7.234375 20.867188 6.996094 20.777344 6.792969 C 20.550781 6.273438 20.511719 5.433594 20.707031 4.835938 C 20.757812 4.683594 20.992188 4.195312 20.898438 4.050781 C 20.851562 3.910156 20.703125 3.828125 20.621094 3.71875 C 20.519531 3.582031 20.417969 3.40625 20.347656 3.25 C 20.164062 2.84375 20.074219 2.390625 19.882812 1.980469 C 19.789062 1.785156 19.632812 1.585938 19.503906 1.414062 C 19.359375 1.222656 19.199219 1.078125 19.089844 0.84375 C 19.050781 0.761719 18.996094 0.628906 19.054688 0.546875 C 19.074219 0.488281 19.101562 0.464844 19.160156 0.445312 C 19.257812 0.371094 19.535156 0.46875 19.640625 0.511719 C 19.917969 0.621094 20.148438 0.730469 20.382812 0.878906 C 20.492188 0.953125 20.605469 1.089844 20.742188 1.128906 C 20.792969 1.128906 20.847656 1.128906 20.898438 1.128906 C 21.140625 1.183594 21.410156 1.144531 21.636719 1.214844 C 22.039062 1.332031 22.394531 1.515625 22.722656 1.714844 C 23.714844 2.320312 24.527344 3.1875 25.082031 4.21875 C 25.167969 4.386719 25.207031 4.542969 25.285156 4.71875 C 25.445312 5.074219 25.644531 5.441406 25.804688 5.789062 C 25.960938 6.136719 26.113281 6.484375 26.335938 6.773438 C 26.453125 6.925781 26.90625 7.007812 27.113281 7.09375 C 27.253906 7.152344 27.492188 7.210938 27.628906 7.292969 C 27.886719 7.445312 28.140625 7.625 28.386719 7.792969 C 28.507812 7.875 28.882812 8.058594 28.902344 8.210938 Z M 28.902344 8.210938 "/>
<path style=" stroke:none;fill-rule:evenodd;fill:rgb(0%,38.039216%,54.117647%);fill-opacity:1;" d="M 21.207031 1.847656 C 21.082031 1.84375 20.992188 1.859375 20.898438 1.882812 C 20.898438 1.886719 20.898438 1.890625 20.898438 1.898438 C 20.902344 1.898438 20.910156 1.898438 20.914062 1.898438 C 20.976562 2.019531 21.082031 2.09375 21.15625 2.199219 C 21.214844 2.316406 21.269531 2.433594 21.328125 2.550781 C 21.332031 2.542969 21.339844 2.539062 21.34375 2.53125 C 21.453125 2.460938 21.5 2.34375 21.5 2.164062 C 21.457031 2.121094 21.449219 2.066406 21.414062 2.015625 C 21.363281 1.945312 21.269531 1.90625 21.207031 1.847656 Z M 21.207031 1.847656 "/>
<path style=" stroke:none;fill-rule:evenodd;fill:rgb(89.411765%,55.686275%,0%);fill-opacity:1;" d="M 28.496094 13.023438 C 28.496094 13.441406 28.839844 13.726562 29.222656 13.726562 C 29.605469 13.726562 29.949219 13.441406 29.949219 13.023438 C 29.949219 12.601562 29.605469 12.320312 29.222656 12.320312 C 28.839844 12.320312 28.496094 12.601562 28.496094 13.023438 Z M 29.785156 13.023438 C 29.785156 13.339844 29.535156 13.582031 29.222656 13.582031 C 28.90625 13.582031 28.660156 13.339844 28.660156 13.023438 C 28.660156 12.703125 28.90625 12.464844 29.222656 12.464844 C 29.535156 12.464844 29.785156 12.703125 29.785156 13.023438 Z M 29.417969 13.425781 C 29.417969 13.425781 29.582031 13.425781 29.582031 13.425781 C 29.582031 13.425781 29.34375 13.070312 29.34375 13.070312 C 29.472656 13.058594 29.566406 13 29.566406 12.851562 C 29.566406 12.6875 29.460938 12.621094 29.257812 12.621094 C 29.257812 12.621094 28.933594 12.621094 28.933594 12.621094 C 28.933594 12.621094 28.933594 13.425781 28.933594 13.425781 C 28.933594 13.425781 29.074219 13.425781 29.074219 13.425781 C 29.074219 13.425781 29.074219 13.078125 29.074219 13.078125 C 29.074219 13.078125 29.203125 13.078125 29.203125 13.078125 C 29.203125 13.078125 29.417969 13.425781 29.417969 13.425781 Z M 29.074219 12.964844 C 29.074219 12.964844 29.074219 12.734375 29.074219 12.734375 C 29.074219 12.734375 29.234375 12.734375 29.234375 12.734375 C 29.316406 12.734375 29.417969 12.75 29.417969 12.84375 C 29.417969 12.953125 29.324219 12.964844 29.222656 12.964844 C 29.222656 12.964844 29.074219 12.964844 29.074219 12.964844 Z M 29.074219 12.964844 "/>
</g>
</svg>
