<?xml version="1.0" encoding="UTF-8"?>
<svg xmlns="http://www.w3.org/2000/svg" xmlns:xlink="http://www.w3.org/1999/xlink" width="30px" height="30px" viewBox="0 0 30 16" version="1.1">
<defs>
<clipPath id="clip1">
  <path d="M 0.421875 7.992188 C 0.421875 12.175781 6.949219 15.566406 15.003906 15.566406 C 23.058594 15.566406 29.585938 12.175781 29.585938 7.992188 C 29.585938 3.808594 23.058594 0.417969 15.003906 0.417969 C 6.949219 0.417969 0.421875 3.808594 0.421875 7.992188 "/>
</clipPath>
<radialGradient id="radial0" gradientUnits="userSpaceOnUse" cx="0" cy="0" fx="0" fy="0" r="1" gradientTransform="matrix(19.148623,0,0,18.909265,9.177216,3.079785)">
<stop offset="0" style="stop-color:rgb(68.235294%,69.803922%,83.529412%);stop-opacity:1;"/>
<stop offset="0.3" style="stop-color:rgb(68.235294%,69.803922%,83.529412%);stop-opacity:1;"/>
<stop offset="0.75" style="stop-color:rgb(28.235294%,29.803922%,53.72549%);stop-opacity:1;"/>
<stop offset="1" style="stop-color:rgb(28.235294%,29.803922%,53.72549%);stop-opacity:1;"/>
</radialGradient>
</defs>
<g id="surface1">
<g clip-path="url(#clip1)" clip-rule="nonzero">
<path style=" stroke:none;fill-rule:nonzero;fill:url(#radial0);" d="M 0.421875 7.992188 C 0.421875 12.175781 6.949219 15.566406 15.003906 15.566406 C 23.058594 15.566406 29.585938 12.175781 29.585938 7.992188 C 29.585938 3.808594 23.058594 0.417969 15.003906 0.417969 C 6.949219 0.417969 0.421875 3.808594 0.421875 7.992188 "/>
</g>
<path style=" stroke:none;fill-rule:nonzero;fill:rgb(46.666667%,48.235294%,70.196078%);fill-opacity:1;" d="M 15.003906 15.003906 C 22.742188 15.003906 29.015625 11.863281 29.015625 7.992188 C 29.015625 4.117188 22.742188 0.980469 15.003906 0.980469 C 7.265625 0.980469 0.992188 4.117188 0.992188 7.992188 C 0.992188 11.863281 7.265625 15.003906 15.003906 15.003906 "/>
<path style=" stroke:none;fill-rule:nonzero;fill:rgb(0%,0%,0%);fill-opacity:1;" d="M 8.34375 8.859375 C 8.980469 8.859375 9.457031 8.746094 9.757812 8.515625 C 10.054688 8.289062 10.257812 7.898438 10.367188 7.351562 C 10.46875 6.839844 10.429688 6.484375 10.253906 6.292969 C 10.074219 6.097656 9.683594 5.996094 9.097656 5.996094 L 8.082031 5.996094 L 7.519531 8.859375 Z M 5.019531 12.390625 C 4.972656 12.390625 4.925781 12.367188 4.898438 12.332031 C 4.867188 12.296875 4.855469 12.25 4.863281 12.203125 L 6.355469 4.613281 C 6.371094 4.539062 6.4375 4.484375 6.511719 4.484375 L 9.734375 4.484375 C 10.746094 4.484375 11.5 4.757812 11.972656 5.292969 C 12.449219 5.832031 12.59375 6.582031 12.410156 7.527344 C 12.332031 7.914062 12.203125 8.269531 12.019531 8.589844 C 11.839844 8.910156 11.601562 9.207031 11.308594 9.472656 C 10.960938 9.796875 10.566406 10.027344 10.136719 10.167969 C 9.714844 10.300781 9.171875 10.371094 8.523438 10.371094 L 7.222656 10.371094 L 6.847656 12.261719 C 6.835938 12.335938 6.769531 12.390625 6.691406 12.390625 Z M 5.019531 12.390625 "/>
<path style=" stroke:none;fill-rule:nonzero;fill:rgb(100%,100%,100%);fill-opacity:1;" d="M 8.210938 6.152344 L 9.097656 6.152344 C 9.804688 6.152344 10.050781 6.304688 10.136719 6.398438 C 10.273438 6.550781 10.300781 6.871094 10.210938 7.324219 C 10.113281 7.832031 9.925781 8.191406 9.660156 8.394531 C 9.386719 8.601562 8.945312 8.703125 8.34375 8.703125 L 7.710938 8.703125 Z M 9.734375 4.328125 L 6.511719 4.328125 C 6.359375 4.328125 6.230469 4.4375 6.203125 4.582031 L 4.707031 12.175781 C 4.691406 12.265625 4.714844 12.359375 4.773438 12.433594 C 4.835938 12.503906 4.925781 12.546875 5.019531 12.546875 L 6.691406 12.546875 C 6.84375 12.546875 6.976562 12.441406 7.003906 12.292969 L 7.351562 10.527344 L 8.523438 10.527344 C 9.1875 10.527344 9.746094 10.457031 10.183594 10.316406 C 10.636719 10.171875 11.050781 9.925781 11.417969 9.585938 C 11.71875 9.3125 11.96875 9.003906 12.160156 8.667969 C 12.347656 8.332031 12.484375 7.960938 12.5625 7.558594 C 12.757812 6.5625 12.601562 5.765625 12.089844 5.191406 C 11.585938 4.621094 10.792969 4.328125 9.734375 4.328125 M 7.324219 9.015625 L 8.34375 9.015625 C 9.019531 9.015625 9.523438 8.890625 9.851562 8.640625 C 10.183594 8.390625 10.40625 7.96875 10.523438 7.382812 C 10.632812 6.816406 10.582031 6.421875 10.371094 6.1875 C 10.160156 5.957031 9.734375 5.839844 9.097656 5.839844 L 7.953125 5.839844 L 7.324219 9.015625 M 9.734375 4.640625 C 10.703125 4.640625 11.410156 4.894531 11.851562 5.394531 C 12.296875 5.898438 12.429688 6.597656 12.253906 7.5 C 12.179688 7.867188 12.058594 8.207031 11.882812 8.515625 C 11.710938 8.820312 11.480469 9.101562 11.203125 9.359375 C 10.867188 9.667969 10.496094 9.886719 10.085938 10.019531 C 9.679688 10.148438 9.15625 10.214844 8.523438 10.214844 L 7.089844 10.214844 L 6.691406 12.234375 L 5.019531 12.234375 L 6.511719 4.640625 L 9.734375 4.640625 "/>
<path style=" stroke:none;fill-rule:nonzero;fill:rgb(0%,0%,0%);fill-opacity:1;" d="M 16.25 10.371094 C 16.199219 10.371094 16.15625 10.351562 16.125 10.316406 C 16.097656 10.277344 16.082031 10.230469 16.09375 10.183594 L 16.753906 6.828125 C 16.816406 6.507812 16.800781 6.277344 16.710938 6.179688 C 16.65625 6.121094 16.488281 6.023438 15.992188 6.023438 L 14.796875 6.023438 L 13.964844 10.246094 C 13.949219 10.320312 13.882812 10.371094 13.808594 10.371094 L 12.148438 10.371094 C 12.101562 10.371094 12.054688 10.351562 12.023438 10.316406 C 11.996094 10.277344 11.984375 10.230469 11.992188 10.183594 L 13.484375 2.59375 C 13.5 2.519531 13.566406 2.46875 13.640625 2.46875 L 15.304688 2.46875 C 15.351562 2.46875 15.394531 2.488281 15.425781 2.523438 C 15.453125 2.5625 15.46875 2.609375 15.457031 2.652344 L 15.097656 4.484375 L 16.386719 4.484375 C 17.367188 4.484375 18.03125 4.65625 18.417969 5.007812 C 18.816406 5.367188 18.9375 5.941406 18.785156 6.710938 L 18.089844 10.246094 C 18.078125 10.320312 18.011719 10.371094 17.9375 10.371094 Z M 16.25 10.371094 "/>
<path style=" stroke:none;fill-rule:nonzero;fill:rgb(100%,100%,100%);fill-opacity:1;" d="M 15.304688 2.3125 L 13.640625 2.3125 C 13.488281 2.3125 13.359375 2.417969 13.332031 2.5625 L 11.835938 10.15625 C 11.820312 10.246094 11.84375 10.34375 11.902344 10.414062 C 11.964844 10.484375 12.054688 10.527344 12.148438 10.527344 L 13.808594 10.527344 C 13.960938 10.527344 14.089844 10.421875 14.121094 10.273438 L 14.925781 6.179688 L 15.992188 6.179688 C 16.484375 6.179688 16.589844 6.28125 16.59375 6.289062 C 16.625 6.320312 16.664062 6.464844 16.597656 6.796875 L 15.9375 10.15625 C 15.917969 10.246094 15.945312 10.34375 16.003906 10.414062 C 16.0625 10.484375 16.152344 10.527344 16.25 10.527344 L 17.9375 10.527344 C 18.085938 10.527344 18.21875 10.421875 18.246094 10.273438 L 18.941406 6.742188 C 19.105469 5.914062 18.964844 5.292969 18.527344 4.894531 C 18.109375 4.515625 17.410156 4.328125 16.386719 4.328125 L 15.289062 4.328125 L 15.613281 2.683594 C 15.632812 2.59375 15.605469 2.496094 15.546875 2.425781 C 15.488281 2.351562 15.398438 2.3125 15.304688 2.3125 M 15.304688 2.625 L 14.90625 4.640625 L 16.386719 4.640625 C 17.316406 4.640625 17.960938 4.804688 18.3125 5.125 C 18.667969 5.445312 18.773438 5.964844 18.632812 6.683594 L 17.9375 10.214844 L 16.25 10.214844 L 16.910156 6.855469 C 16.984375 6.472656 16.957031 6.214844 16.824219 6.074219 C 16.695312 5.9375 16.417969 5.867188 15.992188 5.867188 L 14.664062 5.867188 L 13.808594 10.214844 L 12.148438 10.214844 L 13.640625 2.625 L 15.304688 2.625 "/>
<path style=" stroke:none;fill-rule:nonzero;fill:rgb(0%,0%,0%);fill-opacity:1;" d="M 21.414062 8.859375 C 22.050781 8.859375 22.527344 8.746094 22.828125 8.515625 C 23.125 8.289062 23.328125 7.898438 23.4375 7.351562 C 23.539062 6.839844 23.5 6.484375 23.324219 6.292969 C 23.144531 6.097656 22.753906 5.996094 22.167969 5.996094 L 21.152344 5.996094 L 20.589844 8.859375 Z M 18.089844 12.390625 C 18.042969 12.390625 17.996094 12.367188 17.96875 12.332031 C 17.9375 12.296875 17.925781 12.25 17.933594 12.203125 L 19.429688 4.613281 C 19.441406 4.539062 19.507812 4.484375 19.582031 4.484375 L 22.804688 4.484375 C 23.816406 4.484375 24.570312 4.757812 25.042969 5.292969 C 25.519531 5.832031 25.664062 6.582031 25.480469 7.527344 C 25.402344 7.914062 25.273438 8.269531 25.089844 8.589844 C 24.910156 8.910156 24.671875 9.207031 24.378906 9.472656 C 24.03125 9.796875 23.636719 10.027344 23.207031 10.167969 C 22.785156 10.300781 22.242188 10.371094 21.59375 10.371094 L 20.292969 10.371094 L 19.917969 12.261719 C 19.90625 12.335938 19.839844 12.390625 19.761719 12.390625 Z M 18.089844 12.390625 "/>
<path style=" stroke:none;fill-rule:nonzero;fill:rgb(100%,100%,100%);fill-opacity:1;" d="M 21.28125 6.152344 L 22.167969 6.152344 C 22.878906 6.152344 23.121094 6.304688 23.207031 6.398438 C 23.34375 6.550781 23.371094 6.871094 23.28125 7.324219 C 23.183594 7.832031 22.996094 8.191406 22.730469 8.394531 C 22.457031 8.601562 22.015625 8.703125 21.414062 8.703125 L 20.78125 8.703125 Z M 22.804688 4.328125 L 19.582031 4.328125 C 19.433594 4.328125 19.300781 4.4375 19.273438 4.582031 L 17.777344 12.175781 C 17.761719 12.265625 17.785156 12.359375 17.84375 12.433594 C 17.90625 12.503906 17.996094 12.546875 18.089844 12.546875 L 19.761719 12.546875 C 19.914062 12.546875 20.046875 12.441406 20.074219 12.292969 L 20.421875 10.527344 L 21.59375 10.527344 C 22.257812 10.527344 22.816406 10.457031 23.253906 10.316406 C 23.707031 10.171875 24.121094 9.925781 24.488281 9.585938 C 24.789062 9.3125 25.039062 9.003906 25.230469 8.667969 C 25.417969 8.332031 25.554688 7.960938 25.632812 7.558594 C 25.832031 6.5625 25.671875 5.765625 25.160156 5.191406 C 24.65625 4.621094 23.863281 4.328125 22.804688 4.328125 M 20.398438 9.015625 L 21.414062 9.015625 C 22.089844 9.015625 22.59375 8.890625 22.921875 8.640625 C 23.253906 8.390625 23.476562 7.96875 23.59375 7.382812 C 23.703125 6.816406 23.652344 6.421875 23.441406 6.1875 C 23.230469 5.957031 22.804688 5.839844 22.167969 5.839844 L 21.023438 5.839844 L 20.398438 9.015625 M 22.804688 4.640625 C 23.773438 4.640625 24.480469 4.894531 24.921875 5.394531 C 25.367188 5.898438 25.5 6.597656 25.324219 7.5 C 25.25 7.867188 25.128906 8.207031 24.953125 8.515625 C 24.78125 8.820312 24.550781 9.101562 24.273438 9.359375 C 23.9375 9.667969 23.566406 9.886719 23.15625 10.019531 C 22.75 10.148438 22.226562 10.214844 21.59375 10.214844 L 20.160156 10.214844 L 19.761719 12.234375 L 18.089844 12.234375 L 19.582031 4.640625 L 22.804688 4.640625 "/>
</g>
</svg>
