<?xml version="1.0" encoding="UTF-8"?>
<svg xmlns="http://www.w3.org/2000/svg" xmlns:xlink="http://www.w3.org/1999/xlink" width="35px" height="px" viewBox="0 0 35 35" version="1.1">
<g id="surface1">
<path style=" stroke:none;fill-rule:nonzero;fill:rgb(38.039216%,50.588235%,71.372549%);fill-opacity:1;" d="M 17.507812 25.621094 C 26.355469 25.621094 33.527344 21.984375 33.527344 17.5 C 33.527344 13.015625 26.355469 9.378906 17.507812 9.378906 C 8.660156 9.378906 1.484375 13.015625 1.484375 17.5 C 1.484375 21.984375 8.660156 25.621094 17.507812 25.621094 Z M 17.507812 25.621094 "/>
<path style=" stroke:none;fill-rule:nonzero;fill:rgb(100%,100%,100%);fill-opacity:1;" d="M 20.753906 20.125 L 21.546875 16.035156 C 21.726562 15.109375 21.578125 14.421875 21.105469 13.988281 C 20.644531 13.566406 19.867188 13.363281 18.726562 13.363281 L 17.347656 13.363281 L 17.742188 11.335938 C 14.613281 11.421875 12.003906 8.953125 11.917969 5.824219 C 11.832031 2.691406 14.300781 0.0859375 17.433594 0 L 15.53125 0 C 15.597656 -0.03125 15.675781 -0.03125 15.742188 0 L 14.898438 4.34375 C 14.824219 3.855469 14.632812 3.433594 14.332031 3.085938 C 13.773438 2.449219 12.890625 2.125 11.710938 2.125 L 7.617188 2.125 C 7.03125 2.066406 6.601562 1.542969 6.660156 0.957031 C 6.71875 0.371094 7.242188 -0.0585938 7.828125 0 L 5.652344 22.363281 C -0.523438 21.761719 -5.039062 16.269531 -4.441406 10.09375 C -3.839844 3.917969 1.652344 -0.601562 7.828125 0 L 9.742188 0 C 9.742188 0.527344 9.3125 0.957031 8.785156 0.957031 C 8.257812 0.957031 7.828125 0.527344 7.828125 0 L 8.242188 -2.125 L 9.667969 -2.125 C 10.414062 -2.125 11.042969 -2.207031 11.53125 -2.367188 C 12.035156 -2.53125 12.496094 -2.804688 12.902344 -3.1875 C 13.785156 1.257812 10.894531 5.570312 6.453125 6.453125 C 2.007812 7.332031 -2.308594 4.441406 -3.1875 0 L -3.527344 1.757812 C -4.015625 1.664062 -4.332031 1.191406 -4.238281 0.707031 C -4.140625 0.222656 -3.671875 -0.09375 -3.1875 0 L -1.289062 0 C -1.289062 0.523438 -1.714844 0.949219 -2.238281 0.949219 C -2.761719 0.949219 -3.1875 0.523438 -3.1875 0 L -2.25 -4.824219 L -0.945312 -4.824219 C -0.390625 -4.824219 -0.226562 -4.714844 -0.183594 -4.667969 C -0.144531 -4.625 -0.0625 -4.46875 -0.152344 -3.988281 L -0.910156 -0.0976562 C -0.882812 0.75 -1.550781 1.460938 -2.398438 1.488281 C -3.25 1.515625 -3.960938 0.851562 -3.988281 0 L -2.058594 0 C -2.058594 0.53125 -2.492188 0.964844 -3.023438 0.964844 C -3.554688 0.964844 -3.988281 0.53125 -3.988281 0 Z M 11.945312 16.746094 C 11.828125 17.359375 11.601562 17.796875 11.277344 18.046875 C 10.949219 18.296875 10.421875 18.425781 9.710938 18.425781 L 8.863281 18.425781 L 9.476562 15.269531 L 10.574219 15.269531 C 11.378906 15.269531 11.703125 15.441406 11.835938 15.585938 C 12.015625 15.785156 12.054688 16.1875 11.945312 16.746094 Z M 28.875 14.324219 C 28.320312 13.683594 27.4375 13.363281 26.257812 13.363281 L 22.574219 13.363281 C 18.886719 13.304688 15.941406 10.265625 16 6.574219 C 16.058594 2.886719 19.097656 -0.0585938 22.785156 0 L 20.609375 22.363281 C 14.433594 21.761719 9.917969 16.269531 10.515625 10.09375 C 11.117188 3.917969 16.609375 -0.601562 22.785156 0 L 24.699219 0 C 24.699219 0.527344 24.273438 0.957031 23.742188 0.957031 C 23.214844 0.957031 22.785156 0.527344 22.785156 0 L 23.199219 -2.125 L 24.625 -2.125 C 25.371094 -2.125 26 -2.207031 26.492188 -2.367188 C 26.992188 -2.53125 27.453125 -2.804688 27.859375 -3.1875 C 28.199219 -3.5 28.480469 -3.847656 28.691406 -4.226562 C 29.859375 4.863281 23.4375 13.179688 14.347656 14.347656 C 5.253906 15.511719 -3.0625 9.089844 -4.226562 0 C -4.011719 -1.121094 -4.183594 -2.011719 -4.746094 -2.65625 Z M 26.890625 16.746094 C 26.769531 17.359375 26.546875 17.796875 26.222656 18.046875 C 25.894531 18.296875 25.367188 18.425781 24.65625 18.425781 L 23.808594 18.425781 L 24.421875 15.269531 L 25.519531 15.269531 C 26.324219 15.269531 26.648438 15.441406 26.78125 15.585938 C 26.960938 15.785156 27 16.1875 26.890625 16.746094 Z M 26.890625 16.746094 "/>
<path style=" stroke:none;fill-rule:nonzero;fill:rgb(0%,0%,1.568627%);fill-opacity:1;" d="M 10.574219 15.007812 C 11.300781 15.007812 11.785156 15.144531 12.027344 15.410156 C 12.269531 15.679688 12.328125 16.140625 12.203125 16.792969 C 12.070312 17.476562 11.8125 17.960938 11.4375 18.25 C 11.058594 18.542969 10.484375 18.6875 9.710938 18.6875 L 8.546875 18.6875 L 9.261719 15.007812 Z M 5.910156 22.410156 L 7.824219 22.410156 L 8.277344 20.074219 L 9.917969 20.074219 C 10.640625 20.074219 11.238281 20 11.703125 19.847656 C 12.171875 19.695312 12.597656 19.441406 12.976562 19.082031 C 7.707031 17.394531 4.804688 11.757812 6.488281 6.488281 C 8.175781 1.21875 13.8125 -1.683594 19.082031 0 C 19.28125 -0.355469 19.421875 -0.746094 19.503906 -1.175781 C 19.707031 -2.21875 19.554688 -3.03125 19.046875 -3.613281 C 18.539062 -4.191406 17.730469 -4.484375 16.625 -4.484375 L 7.617188 -4.484375 L 5.910156 4.304688 Z M 15.585938 11.285156 L 17.484375 11.285156 L 17.03125 13.621094 L 18.722656 13.621094 C 19.789062 13.621094 20.523438 13.808594 20.929688 14.179688 C 21.332031 14.550781 21.453125 15.152344 21.292969 15.984375 L 20.496094 20.074219 L 18.566406 20.074219 L 19.324219 16.1875 C 19.410156 15.742188 19.378906 15.441406 19.226562 15.28125 C 19.078125 15.121094 18.761719 15.039062 18.273438 15.039062 L 16.757812 15.039062 L 15.777344 20.074219 L 13.878906 20.074219 Z M 25.519531 15.007812 C 26.246094 15.007812 26.730469 15.144531 26.972656 15.410156 C 27.214844 15.679688 27.273438 16.140625 27.144531 16.792969 C 27.015625 17.476562 26.757812 17.960938 26.378906 18.25 C 26.003906 18.542969 25.429688 18.6875 24.65625 18.6875 L 23.492188 18.6875 L 24.207031 15.007812 Z M 20.851562 22.410156 L 22.769531 22.410156 L 23.222656 20.074219 L 24.863281 20.074219 C 25.585938 20.074219 26.179688 20 26.648438 19.847656 C 27.117188 19.695312 27.539062 19.441406 27.921875 19.082031 C 22.652344 21.523438 16.402344 19.230469 13.960938 13.960938 C 11.519531 8.691406 13.8125 2.441406 19.082031 0 C 19.28125 -0.355469 19.421875 -0.746094 19.503906 -1.175781 C 19.707031 -2.21875 19.554688 -3.03125 19.046875 -3.613281 C 18.539062 -4.191406 17.730469 -4.484375 16.625 -4.484375 L 22.5625 -4.484375 L 20.851562 4.304688 Z M 20.851562 22.410156 "/>
</g>
</svg>
