<?xml version="1.0" encoding="UTF-8"?>
<svg xmlns="http://www.w3.org/2000/svg" xmlns:xlink="http://www.w3.org/1999/xlink" width="35px" height="px" viewBox="0 0 34 20" version="1.1">
<g id="surface1">
<path style=" stroke:none;fill-rule:nonzero;fill:rgb(80%,80%,80%);fill-opacity:1;" d="M 25.09375 0.347656 L 25.078125 0.308594 C 25.070312 0.300781 25.058594 0.289062 25.039062 0.289062 L 25.003906 0.300781 C 24.984375 0.316406 24.980469 0.324219 24.980469 0.34375 L 24.234375 14.242188 L 24.34375 14.222656 L 25.0625 0.703125 L 25.925781 2.160156 L 25.917969 2.160156 C 26.570312 4.128906 26.84375 6.222656 26.738281 8.445312 L 26.792969 8.527344 L 27.644531 10.078125 L 27.695312 10.132812 C 29.003906 11.316406 30.46875 12.113281 32.09375 12.519531 L 32.492188 13.179688 L 32.542969 13.195312 L 32.550781 13.179688 L 25.078125 0.609375 L 25.09375 0.347656 "/>
<path style=" stroke:none;fill-rule:nonzero;fill:rgb(80%,80%,80%);fill-opacity:1;" d="M 24.828125 5.253906 C 25.753906 7.191406 26.085938 10.125 25.839844 14.058594 L 29.433594 13.605469 Z M 33.015625 13.789062 C 33.386719 13.742188 33.625 13.660156 33.730469 13.546875 L 14.933594 15.898438 L 14.929688 15.898438 C 14.933594 16.703125 15.285156 17.335938 15.972656 17.789062 C 16.15625 17.921875 16.347656 18.023438 16.523438 18.085938 C 16.691406 17.886719 16.875 17.742188 17.09375 17.609375 L 17.101562 17.609375 C 19.070312 16.375 21.996094 16.191406 25.859375 17.027344 L 25.902344 17.035156 C 26.324219 17.125 26.746094 17.234375 27.140625 17.359375 C 27.253906 17.378906 27.351562 17.339844 27.433594 17.269531 C 27.574219 17.164062 27.75 17.078125 27.984375 17.027344 L 27.984375 17.019531 C 28.609375 15.882812 29.449219 15.042969 30.503906 14.492188 C 31.230469 14.117188 32.078125 13.875 33.015625 13.789062 M 23.984375 14.136719 L 24.847656 0.578125 C 23.601562 5.523438 21.59375 10.152344 18.847656 14.4375 L 23.984375 14.136719 M 19.144531 3.210938 L 19.109375 3.191406 L 19.070312 3.199219 L 19.054688 3.242188 L 18.339844 14.984375 L 18.449219 14.976562 L 19.164062 3.25 L 19.144531 3.210938 M 18.144531 14.734375 L 18.902344 3.28125 L 14.921875 15.082031 L 18.144531 14.734375 "/>
<path style="fill:none;stroke-width:12;stroke-linecap:round;stroke-linejoin:round;stroke:rgb(80%,80%,80%);stroke-opacity:1;stroke-miterlimit:4;" d="M 503.379244 496.233467 C 476.094069 509.1905 456.328431 511.384836 443.652641 503.338937 C 431.084273 494.97956 411.748323 496.86042 385.64479 509.1905 M 567.402724 498.114327 C 562.353892 496.337959 556.875373 495.188545 550.967166 494.666084 C 539.258174 493.725654 524.863633 498.323311 508.213231 508.145578 C 491.562829 518.281321 471.474925 522.147533 447.627253 520.057689 M 716.396964 473.558659 C 601.348059 449.838929 518.63316 455.377016 467.822579 490.381904 M 788.906779 484.948309 C 783.750525 482.962957 778.272006 481.813543 772.471221 481.500066 C 760.762228 480.559637 746.367688 485.157293 729.717286 494.97956 C 712.959462 504.90632 692.97898 508.772531 669.131308 506.787179 " transform="matrix(0.0363636,0,0,0.0373832,0,0)"/>
<path style="fill:none;stroke-width:29;stroke-linecap:round;stroke-linejoin:round;stroke:rgb(80%,80%,80%);stroke-opacity:1;stroke-miterlimit:4;" d="M 634.434019 88.818372 C 622.725027 81.60841 610.264081 83.489269 597.480869 94.878919 C 586.416409 83.384777 574.814838 81.503917 562.676158 88.818372 M 607.685954 48.170905 C 595.654696 40.960943 583.838282 43.886725 571.699602 56.94825 C 559.883188 43.886725 547.744508 40.960943 535.71325 48.170905 " transform="matrix(0.0363636,0,0,0.0373832,0,0)"/>
<path style=" stroke:none;fill-rule:nonzero;fill:rgb(42.352941%,47.058824%,68.627451%);fill-opacity:1;" d="M 0.648438 15.941406 L 1.8125 15.941406 C 2.160156 15.941406 2.417969 16.039062 2.582031 16.246094 C 2.746094 16.453125 2.800781 16.738281 2.742188 17.105469 C 2.71875 17.253906 2.675781 17.390625 2.613281 17.519531 C 2.550781 17.644531 2.472656 17.757812 2.375 17.859375 C 2.253906 17.984375 2.121094 18.074219 1.980469 18.128906 C 1.832031 18.183594 1.644531 18.214844 1.414062 18.214844 L 0.898438 18.214844 L 0.769531 19.035156 L 0.164062 19.035156 Z M 1.179688 16.429688 L 0.976562 17.726562 L 1.339844 17.726562 C 1.585938 17.726562 1.765625 17.675781 1.882812 17.574219 C 2 17.472656 2.078125 17.300781 2.117188 17.0625 C 2.152344 16.828125 2.128906 16.671875 2.054688 16.574219 C 1.972656 16.480469 1.820312 16.429688 1.59375 16.429688 L 1.179688 16.429688 M 3.421875 15.121094 L 4.023438 15.121094 L 3.894531 15.941406 L 4.429688 15.941406 C 4.769531 15.941406 5 16.011719 5.125 16.140625 C 5.257812 16.273438 5.300781 16.488281 5.253906 16.777344 L 5.027344 18.214844 L 4.417969 18.214844 L 4.632812 16.847656 C 4.660156 16.691406 4.644531 16.585938 4.59375 16.53125 C 4.550781 16.472656 4.445312 16.445312 4.296875 16.445312 L 3.8125 16.445312 L 3.535156 18.214844 L 2.9375 18.214844 L 3.421875 15.121094 M 5.910156 15.941406 L 7.074219 15.941406 C 7.421875 15.941406 7.679688 16.039062 7.84375 16.246094 C 8.007812 16.453125 8.0625 16.738281 8.003906 17.105469 C 7.980469 17.253906 7.9375 17.390625 7.875 17.519531 C 7.816406 17.644531 7.734375 17.757812 7.636719 17.859375 C 7.515625 17.984375 7.382812 18.074219 7.242188 18.128906 C 7.09375 18.183594 6.90625 18.214844 6.675781 18.214844 L 6.15625 18.214844 L 6.03125 19.035156 L 5.421875 19.035156 Z M 6.4375 16.429688 L 6.238281 17.726562 L 6.601562 17.726562 C 6.847656 17.726562 7.027344 17.675781 7.144531 17.574219 C 7.261719 17.472656 7.34375 17.300781 7.378906 17.0625 C 7.414062 16.828125 7.390625 16.671875 7.316406 16.574219 C 7.234375 16.480469 7.085938 16.429688 6.855469 16.429688 L 6.4375 16.429688 "/>
<path style=" stroke:none;fill-rule:nonzero;fill:rgb(97.254902%,61.176471%,5.490196%);fill-opacity:1;" d="M 9.027344 14.464844 L 10.191406 14.464844 L 10.703125 17.339844 L 12.121094 14.464844 L 13.28125 14.464844 L 12.691406 18.207031 L 11.914062 18.207031 L 12.4375 15.292969 L 11.011719 18.207031 L 10.167969 18.207031 L 9.632812 15.265625 L 9.246094 18.207031 L 8.4375 18.207031 L 9.027344 14.464844 M 14.675781 17.605469 L 15.265625 17.605469 L 15.601562 15.457031 L 16.332031 15.457031 L 15.914062 18.136719 C 15.855469 18.496094 15.726562 18.765625 15.53125 18.941406 C 15.332031 19.117188 15.058594 19.203125 14.703125 19.203125 L 13.273438 19.203125 L 13.359375 18.648438 L 14.667969 18.648438 C 14.8125 18.648438 14.921875 18.613281 15.007812 18.546875 C 15.09375 18.476562 15.144531 18.382812 15.167969 18.253906 L 15.175781 18.207031 L 14.527344 18.207031 C 14.113281 18.207031 13.832031 18.128906 13.679688 17.964844 C 13.53125 17.804688 13.484375 17.53125 13.542969 17.15625 L 13.808594 15.460938 L 14.53125 15.460938 L 14.273438 17.097656 C 14.238281 17.304688 14.25 17.445312 14.300781 17.503906 C 14.351562 17.570312 14.480469 17.605469 14.675781 17.605469 M 18.300781 14.464844 L 19.140625 14.464844 L 20.160156 18.207031 L 19.277344 18.207031 L 19.070312 17.320312 L 17.429688 17.320312 L 16.953125 18.207031 L 16.113281 18.207031 Z M 18.574219 15.207031 L 17.796875 16.652344 L 18.921875 16.652344 L 18.574219 15.207031 M 22.921875 18.207031 L 21.515625 18.207031 C 21.089844 18.207031 20.78125 18.085938 20.582031 17.835938 C 20.382812 17.589844 20.320312 17.242188 20.390625 16.800781 C 20.417969 16.617188 20.46875 16.453125 20.539062 16.296875 C 20.613281 16.144531 20.714844 16.007812 20.832031 15.882812 C 20.972656 15.734375 21.136719 15.625 21.316406 15.558594 C 21.496094 15.492188 21.722656 15.460938 21.996094 15.460938 L 22.621094 15.460938 L 22.777344 14.464844 L 23.503906 14.464844 Z M 22.285156 17.617188 L 22.53125 16.054688 L 22.085938 16.054688 C 21.789062 16.054688 21.570312 16.113281 21.425781 16.238281 C 21.285156 16.359375 21.1875 16.566406 21.140625 16.851562 C 21.097656 17.132812 21.121094 17.328125 21.21875 17.445312 C 21.3125 17.5625 21.503906 17.621094 21.777344 17.621094 L 22.285156 17.621094 M 23.984375 15.457031 L 26.792969 15.457031 C 27.199219 15.457031 27.480469 15.535156 27.636719 15.691406 C 27.792969 15.851562 27.839844 16.105469 27.785156 16.460938 L 27.511719 18.207031 L 26.773438 18.207031 L 27.03125 16.558594 C 27.066406 16.355469 27.054688 16.21875 27.003906 16.15625 C 26.953125 16.09375 26.828125 16.058594 26.640625 16.058594 L 26.226562 16.058594 L 25.890625 18.207031 L 25.140625 18.207031 L 25.480469 16.058594 L 24.625 16.058594 L 24.285156 18.207031 L 23.550781 18.207031 L 23.984375 15.457031 M 29.410156 15.144531 L 28.640625 15.144531 L 28.75 14.464844 L 29.515625 14.464844 Z M 28.933594 18.207031 L 28.164062 18.207031 L 28.597656 15.457031 L 29.363281 15.457031 L 28.933594 18.207031 M 29.992188 15.457031 L 31.367188 15.457031 C 31.78125 15.457031 32.070312 15.535156 32.222656 15.691406 C 32.375 15.847656 32.425781 16.101562 32.367188 16.460938 L 32.09375 18.207031 L 31.363281 18.207031 L 31.625 16.550781 C 31.65625 16.34375 31.648438 16.210938 31.59375 16.148438 C 31.539062 16.089844 31.414062 16.054688 31.222656 16.054688 L 30.632812 16.054688 L 30.292969 18.203125 L 29.5625 18.203125 L 29.992188 15.457031 "/>
</g>
</svg>
