<?xml version="1.0" encoding="UTF-8"?>
<svg xmlns="http://www.w3.org/2000/svg" xmlns:xlink="http://www.w3.org/1999/xlink" width="30px" height="30px" viewBox="0 0 30 16" version="1.1">
<defs>
<linearGradient id="linear0" gradientUnits="userSpaceOnUse" x1="996.75275" y1="572.64288" x2="-635.19476" y2="-1226.5938" gradientTransform="matrix(0.0284091,0,0,0.0275387,1.534091,-1.756411)">
<stop offset="0" style="stop-color:rgb(40%,40%,60%);stop-opacity:1;"/>
<stop offset="1" style="stop-color:rgb(100%,100%,100%);stop-opacity:1;"/>
</linearGradient>
<linearGradient id="linear1" gradientUnits="userSpaceOnUse" x1="996.75275" y1="572.64288" x2="-635.19476" y2="-1226.5938" gradientTransform="matrix(0.0284091,0,0,0.0275387,1.534091,-1.756411)">
<stop offset="0" style="stop-color:rgb(40%,40%,60%);stop-opacity:1;"/>
<stop offset="1" style="stop-color:rgb(100%,100%,100%);stop-opacity:1;"/>
</linearGradient>
<linearGradient id="linear2" gradientUnits="userSpaceOnUse" x1="996.75275" y1="572.64288" x2="-635.19476" y2="-1226.5938" gradientTransform="matrix(0.0284091,0,0,0.0275387,1.534091,-1.756411)">
<stop offset="0" style="stop-color:rgb(40%,40%,60%);stop-opacity:1;"/>
<stop offset="1" style="stop-color:rgb(100%,100%,100%);stop-opacity:1;"/>
</linearGradient>
<linearGradient id="linear3" gradientUnits="userSpaceOnUse" x1="962.8067" y1="487.91388" x2="239.32341" y2="-422.62814" gradientTransform="matrix(0.0284091,0,0,0.0275387,1.534091,-1.756411)">
<stop offset="0" style="stop-color:rgb(100%,60%,0%);stop-opacity:1;"/>
<stop offset="1" style="stop-color:rgb(100%,100%,100%);stop-opacity:1;"/>
</linearGradient>
<linearGradient id="linear4" gradientUnits="userSpaceOnUse" x1="962.8067" y1="487.91388" x2="239.32341" y2="-422.62814" gradientTransform="matrix(0.0284091,0,0,0.0275387,1.534091,-1.756411)">
<stop offset="0" style="stop-color:rgb(100%,60%,0%);stop-opacity:1;"/>
<stop offset="1" style="stop-color:rgb(100%,100%,100%);stop-opacity:1;"/>
</linearGradient>
<linearGradient id="linear5" gradientUnits="userSpaceOnUse" x1="962.8067" y1="487.91388" x2="239.32341" y2="-422.62814" gradientTransform="matrix(0.0284091,0,0,0.0275387,1.534091,-1.756411)">
<stop offset="0" style="stop-color:rgb(100%,60%,0%);stop-opacity:1;"/>
<stop offset="1" style="stop-color:rgb(100%,100%,100%);stop-opacity:1;"/>
</linearGradient>
<linearGradient id="linear6" gradientUnits="userSpaceOnUse" x1="962.8067" y1="487.91388" x2="239.32341" y2="-422.62814" gradientTransform="matrix(0.0284091,0,0,0.0275387,1.534091,-1.756411)">
<stop offset="0" style="stop-color:rgb(100%,60%,0%);stop-opacity:1;"/>
<stop offset="1" style="stop-color:rgb(100%,100%,100%);stop-opacity:1;"/>
</linearGradient>
</defs>
<g id="surface1">
<path style="fill:none;stroke-width:3.833858;stroke-linecap:butt;stroke-linejoin:round;stroke:rgb(0%,0%,0%);stroke-opacity:0.85098;stroke-miterlimit:4;" d="M 1030.7 389.224609 C 1041.425 387.947998 1048.3 385.678467 1051.05 382.416016 L 943.1125 395.607666 L 942.425 395.607666 L 505.0375 448.799805 C 505.0375 448.799805 505.0375 448.799805 504.7625 448.799805 C 505.175 471.778809 515.2125 489.367676 535.2875 502.275635 C 540.65 505.963623 546.2875 508.658691 551.375 510.502686 C 556.05 505.112549 561.6875 500.857178 568.0125 497.169189 C 568.2875 497.169189 568.2875 497.169189 568.2875 497.169189 C 625.4875 462.558838 710.4625 457.168701 822.6625 480.715088 L 824.0375 481.140625 C 836.275 483.693848 848.2375 486.814453 859.65 490.076904 C 863.225 490.644287 866.1125 489.793213 868.45 487.807373 C 872.4375 484.686768 877.525 482.417236 884.4 480.715088 L 884.4 480.431396 C 902.275 448.232422 927.025 424.544189 957.6875 409.224854 C 978.8625 398.44458 1003.2 391.777832 1030.7 389.224609 Z M 1030.7 389.224609 " transform="matrix(0.0284091,0,0,0.0275387,0,0)"/>
<path style="fill:none;stroke-width:3.833858;stroke-linecap:butt;stroke-linejoin:round;stroke:rgb(0%,0%,0%);stroke-opacity:0.85098;stroke-miterlimit:4;" d="M 627.6875 90.497559 C 627.4125 90.213867 627.275 89.930176 626.725 89.930176 C 626.175 89.930176 625.9 89.930176 625.7625 90.213867 C 625.4875 90.497559 625.2125 90.923096 624.9375 91.490479 L 604.5875 422.983887 C 604.5875 422.983887 604.5875 422.983887 604.5875 423.267578 C 604.725 422.983887 605 422.983887 605 422.983887 C 605 422.983887 605.275 422.700195 605.55 422.700195 C 606.375 422.700195 606.7875 422.700195 607.6125 422.983887 L 628.2375 91.490479 C 628.2375 91.206787 627.9625 90.78125 627.6875 90.497559 Z M 627.6875 90.497559 " transform="matrix(0.0284091,0,0,0.0275387,0,0)"/>
<path style="fill:none;stroke-width:3.833858;stroke-linecap:butt;stroke-linejoin:round;stroke:rgb(0%,0%,0%);stroke-opacity:0.85098;stroke-miterlimit:4;" d="M 799.975 8.510742 C 799.7 8.227051 799.425 7.801514 799.0125 7.801514 C 798.4625 7.801514 798.1875 8.227051 797.6375 8.227051 C 797.5 8.510742 797.225 9.078125 797.225 9.503662 L 775.5 402.274414 C 775.5 402.274414 775.775 402.274414 776.05 402.274414 C 776.4625 402.274414 777.0125 402.274414 777.5625 402.274414 C 777.8375 402.274414 777.8375 402.274414 778.1125 401.990723 C 778.1125 401.990723 778.1125 401.990723 778.1125 401.848877 C 778.25 401.848877 778.525 401.848877 778.525 401.848877 L 799.7 19.716553 C 799.7 19.291016 799.7 19.291016 799.7 19.291016 C 799.7 19.291016 799.7 19.291016 799.7 19.007324 C 799.7 19.007324 799.7 19.007324 799.975 19.007324 C 799.7 18.723633 799.7 18.723633 799.7 18.723633 C 799.7 18.723633 799.7 18.723633 799.975 18.723633 C 799.7 18.439941 799.7 18.439941 799.7 18.439941 C 799.7 18.298096 799.7 18.298096 799.975 18.014404 C 799.7 18.014404 799.7 18.014404 799.7 17.730713 C 799.7 17.730713 799.7 17.730713 799.7 17.447021 C 799.7 17.447021 799.7 17.447021 799.975 17.447021 C 799.7 17.447021 799.7 17.447021 799.7 17.16333 C 799.7 17.16333 799.7 17.16333 799.975 17.16333 L 800.25 9.503662 C 800.25 9.078125 800.25 8.794434 799.975 8.510742 Z M 799.975 8.510742 " transform="matrix(0.0284091,0,0,0.0275387,0,0)"/>
<path style="fill:none;stroke-width:3.833858;stroke-linecap:butt;stroke-linejoin:round;stroke:rgb(0%,0%,0%);stroke-opacity:0.85098;stroke-miterlimit:4;" d="M 849.2 247.378906 L 847.9625 245.109375 L 792.825 147.803223 C 819.3625 202.981201 829.125 285.960938 821.975 396.884277 L 926.6125 384.118164 Z M 849.2 247.378906 " transform="matrix(0.0284091,0,0,0.0275387,0,0)"/>
<path style="fill:none;stroke-width:3.833858;stroke-linecap:butt;stroke-linejoin:round;stroke:rgb(0%,0%,0%);stroke-opacity:0.85098;stroke-miterlimit:4;" d="M 768.35 399.011963 L 793.375 15.886719 C 756.9375 155.746582 698.9125 286.244629 619.025 407.380859 Z M 768.35 399.011963 " transform="matrix(0.0284091,0,0,0.0275387,0,0)"/>
<path style="fill:none;stroke-width:3.833858;stroke-linecap:butt;stroke-linejoin:round;stroke:rgb(0%,0%,0%);stroke-opacity:0.85098;stroke-miterlimit:4;" d="M 598.675 416.033447 L 620.5375 92.483398 L 504.7625 425.820801 Z M 598.675 416.033447 " transform="matrix(0.0284091,0,0,0.0275387,0,0)"/>
<path style="fill:none;stroke-width:3.833858;stroke-linecap:butt;stroke-linejoin:round;stroke:rgb(0%,0%,0%);stroke-opacity:0.85098;stroke-miterlimit:4;" d="M 800.8 18.298096 L 800.525 18.439941 L 800.525 19.716553 L 800.25 20.000244 L 800.525 20.000244 L 800.525 20.567627 L 827.3375 64.965332 L 824.45 60.851807 C 843.425 116.171631 851.2625 175.746826 848.2375 238.442627 C 848.2375 238.726318 848.2375 238.726318 848.2375 238.726318 L 848.5125 239.01001 C 848.7875 239.435547 849.2 239.719238 849.475 240.286621 C 849.475 240.286621 849.475 240.570312 849.75 240.712158 L 874.5 284.400635 C 874.775 284.684326 874.775 284.968018 874.775 285.393555 L 875.05 285.393555 C 875.4625 285.677246 875.4625 285.960938 876.0125 286.244629 C 913.825 319.436523 956.725 341.848145 1003.8875 353.621338 L 1015.4375 372.203125 C 1015.85 372.203125 1016.4 372.203125 1016.675 372.628662 C 1016.95 372.486816 1016.95 372.203125 1017.225 372.203125 Z M 800.8 18.298096 " transform="matrix(0.0284091,0,0,0.0275387,0,0)"/>
<path style=" stroke:none;fill-rule:nonzero;fill:url(#linear0);" d="M 29.269531 10.675781 C 29.574219 10.640625 29.769531 10.578125 29.851562 10.484375 L 26.785156 10.851562 L 26.761719 10.851562 L 14.335938 12.3125 C 14.335938 12.3125 14.335938 12.3125 14.328125 12.3125 C 14.34375 12.945312 14.625 13.429688 15.199219 13.789062 C 15.351562 13.886719 15.511719 13.964844 15.65625 14.011719 C 15.785156 13.867188 15.945312 13.746094 16.125 13.648438 C 16.132812 13.648438 16.132812 13.648438 16.132812 13.648438 C 17.757812 12.691406 20.171875 12.542969 23.363281 13.191406 L 23.398438 13.207031 C 23.746094 13.277344 24.085938 13.359375 24.414062 13.453125 C 24.515625 13.464844 24.59375 13.445312 24.660156 13.386719 C 24.777344 13.304688 24.921875 13.242188 25.117188 13.191406 L 25.117188 13.183594 C 25.625 12.296875 26.328125 11.644531 27.199219 11.222656 C 27.800781 10.929688 28.488281 10.746094 29.269531 10.675781 Z M 29.269531 10.675781 "/>
<path style=" stroke:none;fill-rule:nonzero;fill:url(#linear1);" d="M 17.824219 2.445312 C 17.816406 2.4375 17.808594 2.433594 17.792969 2.433594 C 17.78125 2.433594 17.773438 2.433594 17.765625 2.4375 C 17.757812 2.445312 17.75 2.460938 17.742188 2.472656 L 17.164062 11.601562 C 17.164062 11.601562 17.164062 11.601562 17.164062 11.609375 C 17.171875 11.601562 17.179688 11.601562 17.179688 11.601562 C 17.179688 11.601562 17.1875 11.597656 17.191406 11.597656 C 17.214844 11.597656 17.230469 11.597656 17.25 11.601562 L 17.835938 2.472656 C 17.835938 2.464844 17.832031 2.453125 17.824219 2.445312 Z M 17.824219 2.445312 "/>
<path style=" stroke:none;fill-rule:nonzero;fill:url(#linear2);" d="M 22.71875 0.191406 C 22.710938 0.183594 22.703125 0.167969 22.6875 0.167969 C 22.671875 0.167969 22.667969 0.183594 22.652344 0.183594 C 22.644531 0.191406 22.636719 0.203125 22.636719 0.21875 L 22.019531 11.035156 C 22.019531 11.035156 22.027344 11.035156 22.035156 11.035156 C 22.050781 11.035156 22.066406 11.035156 22.078125 11.035156 C 22.085938 11.035156 22.085938 11.035156 22.09375 11.027344 C 22.09375 11.027344 22.09375 11.027344 22.09375 11.019531 C 22.101562 11.019531 22.109375 11.019531 22.109375 11.019531 L 22.710938 0.5 C 22.710938 0.484375 22.710938 0.484375 22.710938 0.484375 C 22.710938 0.484375 22.710938 0.484375 22.710938 0.476562 C 22.710938 0.476562 22.710938 0.476562 22.71875 0.476562 C 22.710938 0.472656 22.710938 0.472656 22.710938 0.472656 C 22.710938 0.472656 22.710938 0.472656 22.71875 0.472656 C 22.710938 0.464844 22.710938 0.464844 22.710938 0.464844 C 22.710938 0.457031 22.710938 0.457031 22.71875 0.449219 C 22.710938 0.449219 22.710938 0.449219 22.710938 0.441406 C 22.710938 0.441406 22.710938 0.441406 22.710938 0.4375 C 22.710938 0.4375 22.710938 0.4375 22.71875 0.4375 C 22.710938 0.4375 22.710938 0.4375 22.710938 0.429688 C 22.710938 0.429688 22.710938 0.429688 22.71875 0.429688 L 22.722656 0.21875 C 22.722656 0.203125 22.722656 0.195312 22.71875 0.191406 Z M 22.71875 0.191406 "/>
<path style="fill:none;stroke-width:1.2;stroke-linecap:round;stroke-linejoin:round;stroke:rgb(0%,0%,16.862745%);stroke-opacity:1;stroke-miterlimit:4;" d="M 670.45 518.304199 C 665.0875 516.318359 659.3125 515.041748 653.125 514.474365 C 640.6125 513.765137 625.625 518.587891 608.025 529.084473 C 590.425 539.439209 569.25 543.836426 543.95 541.566895 " transform="matrix(0.0284091,0,0,0.0275387,0,0)"/>
<path style="fill:none;stroke-width:1.2;stroke-linecap:round;stroke-linejoin:round;stroke:rgb(0%,0%,16.862745%);stroke-opacity:1;stroke-miterlimit:4;" d="M 602.9375 516.318359 C 574.0625 530.077393 552.8875 532.346924 539.825 523.694336 C 526.625 514.758057 506.1375 517.027588 478.6375 530.077393 " transform="matrix(0.0284091,0,0,0.0275387,0,0)"/>
<path style="fill:none;stroke-width:1.2;stroke-linecap:round;stroke-linejoin:round;stroke:rgb(0%,0%,16.862745%);stroke-opacity:1;stroke-miterlimit:4;" d="M 828.025 492.346436 C 706.475 467.239746 619.025 473.197266 565.4 510.077148 " transform="matrix(0.0284091,0,0,0.0275387,0,0)"/>
<path style="fill:none;stroke-width:1.2;stroke-linecap:round;stroke-linejoin:round;stroke:rgb(0%,0%,16.862745%);stroke-opacity:1;stroke-miterlimit:4;" d="M 904.475 504.261475 C 899.1125 502.275635 893.3375 500.999023 887.15 500.431641 C 874.6375 499.438721 859.65 504.261475 842.05 514.758057 C 824.45 525.396484 803.275 529.51001 777.975 527.52417 " transform="matrix(0.0284091,0,0,0.0275387,0,0)"/>
<path style=" stroke:none;fill-rule:nonzero;fill:url(#linear3);" d="M 24.117188 6.769531 L 24.078125 6.703125 L 22.515625 4.027344 C 23.269531 5.546875 23.542969 7.828125 23.339844 10.886719 L 26.3125 10.535156 Z M 24.117188 6.769531 "/>
<path style=" stroke:none;fill-rule:nonzero;fill:url(#linear4);" d="M 21.816406 10.941406 L 22.527344 0.394531 C 21.492188 4.246094 19.847656 7.835938 17.578125 11.175781 Z M 21.816406 10.941406 "/>
<path style=" stroke:none;fill-rule:nonzero;fill:url(#linear5);" d="M 16.996094 11.414062 L 17.621094 2.503906 L 14.328125 11.679688 Z M 16.996094 11.414062 "/>
<path style=" stroke:none;fill-rule:nonzero;fill:url(#linear6);" d="M 22.738281 0.457031 L 22.730469 0.464844 L 22.730469 0.5 L 22.722656 0.507812 L 22.730469 0.507812 L 22.730469 0.519531 L 23.492188 1.742188 L 23.414062 1.628906 C 23.949219 3.15625 24.175781 4.792969 24.085938 6.523438 C 24.085938 6.527344 24.085938 6.527344 24.085938 6.527344 L 24.09375 6.535156 C 24.101562 6.550781 24.117188 6.558594 24.125 6.570312 C 24.125 6.570312 24.125 6.578125 24.128906 6.585938 L 24.832031 7.785156 C 24.839844 7.792969 24.839844 7.800781 24.839844 7.816406 L 24.847656 7.816406 C 24.863281 7.820312 24.863281 7.828125 24.878906 7.835938 C 25.949219 8.75 27.167969 9.367188 28.511719 9.691406 L 28.835938 10.203125 C 28.851562 10.203125 28.863281 10.203125 28.871094 10.21875 C 28.878906 10.210938 28.878906 10.203125 28.886719 10.203125 Z M 22.738281 0.457031 "/>
<path style="fill:none;stroke-width:1.769851;stroke-linecap:round;stroke-linejoin:round;stroke:rgb(0%,0%,0%);stroke-opacity:1;stroke-miterlimit:4;" d="M 728.0625 31.631592 C 720.3625 26.808838 712.25 28.085449 704.1375 35.31958 C 696.9875 28.085449 689.425 26.808838 681.5875 31.631592 " transform="matrix(0.0284091,0,0,0.0275387,0,0)"/>
<path style="fill:none;stroke-width:1.769851;stroke-linecap:round;stroke-linejoin:round;stroke:rgb(0%,0%,0%);stroke-opacity:1;stroke-miterlimit:4;" d="M 710.7375 5.390137 C 702.9 0.709229 695.3375 2.411377 687.5 11.063965 C 679.9375 2.411377 672.1 0.709229 664.2625 5.390137 " transform="matrix(0.0284091,0,0,0.0275387,0,0)"/>
<path style="fill:none;stroke-width:1.769851;stroke-linecap:round;stroke-linejoin:round;stroke:rgb(0%,0%,0%);stroke-opacity:0.478431;stroke-miterlimit:4;" d="M 727.65 32.766357 C 720.0875 27.943604 711.975 29.220215 703.8625 36.596191 C 696.7125 29.220215 689.0125 27.943604 681.3125 32.766357 " transform="matrix(0.0284091,0,0,0.0275387,0,0)"/>
<path style="fill:none;stroke-width:1.769851;stroke-linecap:round;stroke-linejoin:round;stroke:rgb(0%,0%,0%);stroke-opacity:0.478431;stroke-miterlimit:4;" d="M 710.4625 6.666748 C 702.625 1.98584 694.925 3.687988 687.225 12.19873 C 679.525 3.687988 671.825 1.98584 663.9875 6.666748 " transform="matrix(0.0284091,0,0,0.0275387,0,0)"/>
<path style="fill:none;stroke-width:13.818897;stroke-linecap:butt;stroke-linejoin:round;stroke:rgb(0%,0%,0%);stroke-opacity:0.85098;stroke-miterlimit:4;" d="M 57.75 484.686768 L 43.0375 527.807861 L 55.275 527.807861 C 63.3875 527.807861 69.7125 526.105713 74.25 522.701416 C 78.7875 519.297119 82.3625 513.623291 85.1125 505.679932 C 87.725 498.020264 88 492.488281 85.9375 489.367676 C 84.0125 486.24707 79.2 484.686768 71.5 484.686768 Z M 43.175 468.232666 L 81.8125 468.232666 C 93.5 468.232666 101.3375 471.636963 105.6 478.445557 C 109.725 485.395996 109.725 494.899658 105.6 507.098389 C 103.95 512.204834 101.6125 516.743896 98.8625 520.999268 C 96.1125 525.112793 92.675 528.942627 88.825 532.48877 C 84.15 536.602295 79.2 539.581055 73.975 541.425049 C 68.75 543.269043 62.2875 544.120117 54.725 544.120117 L 37.5375 544.120117 L 28.1875 571.638184 L 8.1125 571.638184 Z M 43.175 468.232666 " transform="matrix(0.0284091,0,0,0.0275387,0,0)"/>
<path style="fill:none;stroke-width:13.818897;stroke-linecap:butt;stroke-linejoin:round;stroke:rgb(0%,0%,0%);stroke-opacity:0.85098;stroke-miterlimit:4;" d="M 140.525 440.7146 L 160.325 440.7146 L 150.975 468.232666 L 168.85 468.232666 C 179.9875 468.232666 187.275 470.360352 190.85 474.757568 C 194.2875 479.154785 194.425 486.24707 191.125 496.034424 L 174.7625 544.120117 L 154.55 544.120117 L 170.0875 498.303955 C 171.875 493.19751 172.15 489.651367 170.9125 487.665527 C 169.675 485.821533 166.375 484.970459 161.2875 484.970459 L 145.3375 484.970459 L 125.2625 544.120117 L 105.325 544.120117 Z M 140.525 440.7146 " transform="matrix(0.0284091,0,0,0.0275387,0,0)"/>
<path style="fill:none;stroke-width:13.818897;stroke-linecap:butt;stroke-linejoin:round;stroke:rgb(0%,0%,0%);stroke-opacity:0.85098;stroke-miterlimit:4;" d="M 232.375 484.686768 L 217.6625 527.807861 L 229.9 527.807861 C 238.0125 527.807861 244.3375 526.105713 248.875 522.701416 C 253.4125 519.297119 256.9875 513.623291 259.7375 505.679932 C 262.35 498.020264 262.625 492.488281 260.7 489.367676 C 258.6375 486.24707 253.825 484.686768 246.125 484.686768 Z M 217.9375 468.232666 L 256.4375 468.232666 C 268.125 468.232666 276.1 471.636963 280.225 478.445557 C 284.35 485.395996 284.4875 494.899658 280.225 507.098389 C 278.575 512.204834 276.375 516.743896 273.4875 520.999268 C 270.7375 525.112793 267.4375 528.942627 263.45 532.48877 C 258.775 536.602295 253.825 539.581055 248.6 541.425049 C 243.375 543.269043 236.9125 544.120117 229.35 544.120117 L 212.1625 544.120117 L 202.8125 571.638184 L 182.7375 571.638184 Z M 217.9375 468.232666 " transform="matrix(0.0284091,0,0,0.0275387,0,0)"/>
<path style="fill:none;stroke-width:13.818897;stroke-linecap:butt;stroke-linejoin:round;stroke:rgb(0%,0%,0%);stroke-opacity:0.85098;stroke-miterlimit:4;" d="M 317.2125 440.7146 L 349.1125 440.7146 L 348.5625 520.006348 L 401.775 440.7146 L 433.675 440.7146 L 398.475 544.120117 L 377.1625 544.120117 L 406.3125 463.551758 L 352.4125 544.120117 L 329.3125 544.120117 L 329.725 462.700684 L 304.15 544.120117 L 282.0125 544.120117 Z M 317.2125 440.7146 " transform="matrix(0.0284091,0,0,0.0275387,0,0)"/>
<path style="fill:none;stroke-width:13.818897;stroke-linecap:butt;stroke-linejoin:round;stroke:rgb(0%,0%,0%);stroke-opacity:0.85098;stroke-miterlimit:4;" d="M 456.0875 527.382324 L 472.175 527.382324 L 492.25 468.232666 L 512.325 468.232666 L 487.1625 542.134277 C 483.8625 552.063477 478.9125 559.581299 472.5875 564.404053 C 466.2625 569.226807 458.2875 571.638184 448.6625 571.638184 L 409.3375 571.638184 L 414.5625 556.177002 L 450.45 556.177002 C 454.3 556.177002 457.4625 555.325928 460.2125 553.481934 C 462.9625 551.637939 464.8875 548.942871 465.9875 545.396729 L 466.5375 544.120117 L 448.8 544.120117 C 437.3875 544.120117 430.1 541.850586 426.8 537.453369 C 423.5 532.914307 423.6375 525.396484 427.2125 515.041748 L 443.025 468.232666 L 462.825 468.232666 L 447.5625 513.481445 C 445.5 519.155273 445.0875 522.985107 446.1875 524.687256 C 447.2875 526.53125 450.5875 527.382324 456.0875 527.382324 Z M 456.0875 527.382324 " transform="matrix(0.0284091,0,0,0.0275387,0,0)"/>
<path style="fill:none;stroke-width:13.818897;stroke-linecap:butt;stroke-linejoin:round;stroke:rgb(0%,0%,0%);stroke-opacity:0.85098;stroke-miterlimit:4;" d="M 574.8875 461.282227 L 546.2875 501.140869 L 577.0875 501.140869 Z M 571.175 440.7146 L 594.275 440.7146 L 603.2125 544.120117 L 579.0125 544.120117 L 577.9125 519.438965 L 532.95 519.438965 L 515.35 544.120117 L 492.3875 544.120117 Z M 571.175 440.7146 " transform="matrix(0.0284091,0,0,0.0275387,0,0)"/>
<path style="fill:none;stroke-width:13.818897;stroke-linecap:butt;stroke-linejoin:round;stroke:rgb(0%,0%,0%);stroke-opacity:0.85098;stroke-miterlimit:4;" d="M 664.2625 527.807861 L 678.975 484.686768 L 666.875 484.686768 C 658.7625 484.686768 652.4375 486.388916 647.9 489.651367 C 643.3625 493.055664 639.7875 498.729492 637.0375 506.672852 C 634.425 514.33252 634.15 519.864502 636.2125 522.985107 C 638.1375 526.247559 642.95 527.807861 650.65 527.807861 Z M 678.7 544.120117 L 640.3375 544.120117 C 628.65 544.120117 620.8125 540.71582 616.55 533.907227 C 612.425 526.956787 612.425 517.453125 616.55 505.254395 C 618.2 500.147949 620.4 495.608887 623.2875 491.353516 C 626.0375 487.23999 629.3375 483.410156 633.325 479.864014 C 638 475.750488 642.95 472.771729 648.175 470.927734 C 653.5375 469.08374 659.8625 468.232666 667.425 468.232666 L 684.6125 468.232666 L 693.9625 440.7146 L 713.9 440.7146 Z M 678.7 544.120117 " transform="matrix(0.0284091,0,0,0.0275387,0,0)"/>
<path style="fill:none;stroke-width:13.818897;stroke-linecap:butt;stroke-linejoin:round;stroke:rgb(0%,0%,0%);stroke-opacity:0.85098;stroke-miterlimit:4;" d="M 722.0125 468.232666 L 799.0125 468.232666 C 810.15 468.232666 817.4375 470.360352 820.875 474.757568 C 824.3125 479.154785 824.3125 486.24707 821.0125 496.034424 L 804.65 544.120117 L 784.4375 544.120117 L 799.975 498.587646 C 801.9 493.055664 802.3125 489.367676 801.2125 487.523682 C 800.1125 485.821533 796.95 484.970459 791.725 484.970459 L 780.45 484.970459 L 760.375 544.120117 L 739.8875 544.120117 L 759.9625 484.970459 L 736.5875 484.970459 L 716.375 544.120117 L 696.3 544.120117 Z M 722.0125 468.232666 " transform="matrix(0.0284091,0,0,0.0275387,0,0)"/>
<path style="fill:none;stroke-width:13.818897;stroke-linecap:butt;stroke-linejoin:round;stroke:rgb(0%,0%,0%);stroke-opacity:0.85098;stroke-miterlimit:4;" d="M 872.3 459.580078 L 851.2625 459.580078 L 857.725 440.7146 L 878.625 440.7146 Z M 843.5625 544.120117 L 822.525 544.120117 L 848.375 468.232666 L 869.275 468.232666 Z M 843.5625 544.120117 " transform="matrix(0.0284091,0,0,0.0275387,0,0)"/>
<path style="fill:none;stroke-width:13.818897;stroke-linecap:butt;stroke-linejoin:round;stroke:rgb(0%,0%,0%);stroke-opacity:0.85098;stroke-miterlimit:4;" d="M 886.6 468.232666 L 924.275 468.232666 C 935.6875 468.232666 943.1125 470.360352 946.4125 474.615723 C 949.85 479.012939 949.85 486.105225 946.55 496.034424 L 930.1875 544.120117 L 910.1125 544.120117 L 925.65 498.445801 C 927.575 492.771973 927.9875 489.083984 926.75 487.381836 C 925.65 485.679688 922.35 484.970459 916.9875 484.970459 L 900.9 484.970459 L 880.825 544.120117 L 860.75 544.120117 Z M 886.6 468.232666 " transform="matrix(0.0284091,0,0,0.0275387,0,0)"/>
<path style="fill-rule:nonzero;fill:rgb(40%,40%,60%);fill-opacity:1;stroke-width:3.125197;stroke-linecap:butt;stroke-linejoin:round;stroke:rgb(100%,100%,100%);stroke-opacity:1;stroke-miterlimit:4;" d="M 56.1 482.417236 L 41.3875 525.680176 L 53.625 525.680176 C 61.7375 525.680176 68.0625 523.978027 72.6 520.431885 C 77.1375 517.027588 80.7125 511.35376 83.4625 503.4104 C 86.075 495.750732 86.35 490.360596 84.2875 487.098145 C 82.3625 483.977539 77.55 482.417236 69.85 482.417236 Z M 41.6625 465.963135 L 80.1625 465.963135 C 91.85 465.963135 99.6875 469.367432 103.95 476.317871 C 108.075 483.126465 108.075 492.630127 103.95 504.828857 C 102.3 509.935303 99.9625 514.474365 97.2125 518.729736 C 94.4625 522.843262 91.025 526.673096 87.175 530.219238 C 82.5 534.332764 77.55 537.311523 72.325 539.155518 C 67.1 540.999512 60.6375 541.850586 53.075 541.850586 L 35.8875 541.850586 L 26.5375 569.368652 L 6.4625 569.368652 Z M 41.6625 465.963135 " transform="matrix(0.0284091,0,0,0.0275387,0,0)"/>
<path style="fill-rule:nonzero;fill:rgb(40%,40%,60%);fill-opacity:1;stroke-width:3.125197;stroke-linecap:butt;stroke-linejoin:round;stroke:rgb(100%,100%,100%);stroke-opacity:1;stroke-miterlimit:4;" d="M 138.875 438.445068 L 158.675 438.445068 L 149.325 465.963135 L 167.2 465.963135 C 178.3375 465.963135 185.625 468.232666 189.2 472.629883 C 192.6375 477.0271 192.775 483.977539 189.475 493.764893 L 173.1125 541.850586 L 152.9 541.850586 L 168.4375 496.034424 C 170.225 490.927979 170.5 487.381836 169.2625 485.537842 C 168.025 483.552002 164.725 482.700928 159.6375 482.700928 L 143.6875 482.700928 L 123.6125 541.850586 L 103.675 541.850586 Z M 138.875 438.445068 " transform="matrix(0.0284091,0,0,0.0275387,0,0)"/>
<path style="fill-rule:nonzero;fill:rgb(40%,40%,60%);fill-opacity:1;stroke-width:3.125197;stroke-linecap:butt;stroke-linejoin:round;stroke:rgb(100%,100%,100%);stroke-opacity:1;stroke-miterlimit:4;" d="M 230.725 482.417236 L 216.0125 525.680176 L 228.25 525.680176 C 236.3625 525.680176 242.6875 523.978027 247.225 520.431885 C 251.7625 517.027588 255.3375 511.35376 258.0875 503.4104 C 260.7 495.750732 260.975 490.360596 259.05 487.098145 C 256.9875 483.977539 252.175 482.417236 244.475 482.417236 Z M 216.2875 465.963135 L 254.7875 465.963135 C 266.475 465.963135 274.45 469.367432 278.575 476.317871 C 282.7 483.126465 282.8375 492.630127 278.575 504.828857 C 276.925 509.935303 274.725 514.474365 271.8375 518.729736 C 269.0875 522.843262 265.7875 526.673096 261.8 530.219238 C 257.125 534.332764 252.175 537.311523 246.95 539.155518 C 241.725 540.999512 235.2625 541.850586 227.7 541.850586 L 210.5125 541.850586 L 201.1625 569.368652 L 181.0875 569.368652 Z M 216.2875 465.963135 " transform="matrix(0.0284091,0,0,0.0275387,0,0)"/>
<path style="fill-rule:nonzero;fill:rgb(100%,60%,0%);fill-opacity:1;stroke-width:3.125197;stroke-linecap:butt;stroke-linejoin:round;stroke:rgb(100%,100%,100%);stroke-opacity:1;stroke-miterlimit:4;" d="M 315.5625 438.445068 L 347.4625 438.445068 L 346.9125 517.878662 L 400.125 438.445068 L 432.025 438.445068 L 396.825 541.850586 L 375.5125 541.850586 L 404.6625 461.424072 L 350.7625 541.850586 L 327.6625 541.850586 L 328.075 460.572998 L 302.5 541.850586 L 280.3625 541.850586 Z M 315.5625 438.445068 " transform="matrix(0.0284091,0,0,0.0275387,0,0)"/>
<path style="fill-rule:nonzero;fill:rgb(100%,60%,0%);fill-opacity:1;stroke-width:3.125197;stroke-linecap:butt;stroke-linejoin:round;stroke:rgb(100%,100%,100%);stroke-opacity:1;stroke-miterlimit:4;" d="M 454.4375 525.112793 L 470.525 525.112793 L 490.6 465.963135 L 510.675 465.963135 L 485.5125 539.864746 C 482.2125 549.935791 477.2625 557.311768 470.9375 562.134521 C 464.6125 566.957275 456.6375 569.368652 447.0125 569.368652 L 407.6875 569.368652 L 412.9125 553.907471 L 448.8 553.907471 C 452.65 553.907471 455.8125 553.056396 458.5625 551.212402 C 461.3125 549.368408 463.2375 546.67334 464.3375 543.127197 L 464.8875 541.850586 L 447.15 541.850586 C 435.7375 541.850586 428.45 539.581055 425.15 535.183838 C 421.85 530.644775 421.9875 523.268799 425.5625 512.772217 L 441.375 465.963135 L 461.175 465.963135 L 445.9125 511.211914 C 443.85 516.885742 443.4375 520.715576 444.5375 522.417725 C 445.6375 524.261719 448.9375 525.112793 454.4375 525.112793 Z M 454.4375 525.112793 " transform="matrix(0.0284091,0,0,0.0275387,0,0)"/>
<path style="fill-rule:nonzero;fill:rgb(100%,60%,0%);fill-opacity:1;stroke-width:3.125197;stroke-linecap:butt;stroke-linejoin:round;stroke:rgb(100%,100%,100%);stroke-opacity:1;stroke-miterlimit:4;" d="M 573.2375 459.012695 L 544.6375 498.871338 L 575.4375 498.871338 Z M 569.525 438.445068 L 592.625 438.445068 L 601.5625 541.850586 L 577.3625 541.850586 L 576.2625 517.311279 L 531.3 517.311279 L 513.7 541.850586 L 490.7375 541.850586 Z M 569.525 438.445068 " transform="matrix(0.0284091,0,0,0.0275387,0,0)"/>
<path style="fill-rule:nonzero;fill:rgb(100%,60%,0%);fill-opacity:1;stroke-width:3.125197;stroke-linecap:butt;stroke-linejoin:round;stroke:rgb(100%,100%,100%);stroke-opacity:1;stroke-miterlimit:4;" d="M 662.6125 525.680176 L 677.325 482.417236 L 665.225 482.417236 C 657.1125 482.417236 650.7875 484.119385 646.25 487.523682 C 641.7125 490.927979 638.1375 496.601807 635.3875 504.40332 C 632.775 512.204834 632.5 517.594971 634.5625 520.857422 C 636.4875 523.978027 641.3 525.680176 649 525.680176 Z M 677.05 541.850586 L 638.6875 541.850586 C 627 541.850586 619.1625 538.446289 614.9 531.637695 C 610.775 524.829102 610.775 515.183594 614.9 502.984863 C 616.55 498.020264 618.8875 493.339355 621.6375 489.22583 C 624.3875 484.970459 627.6875 481.140625 631.675 477.736328 C 636.35 473.480957 641.3 470.502197 646.525 468.658203 C 651.8875 466.956055 658.2125 465.963135 665.775 465.963135 L 682.9625 465.963135 L 692.3125 438.445068 L 712.25 438.445068 Z M 677.05 541.850586 " transform="matrix(0.0284091,0,0,0.0275387,0,0)"/>
<path style="fill-rule:nonzero;fill:rgb(100%,60%,0%);fill-opacity:1;stroke-width:3.125197;stroke-linecap:butt;stroke-linejoin:round;stroke:rgb(100%,100%,100%);stroke-opacity:1;stroke-miterlimit:4;" d="M 720.3625 465.963135 L 797.3625 465.963135 C 808.5 465.963135 815.7875 468.232666 819.225 472.488037 C 822.6625 476.885254 822.6625 483.977539 819.3625 493.764893 L 803 541.850586 L 782.7875 541.850586 L 798.325 496.318115 C 800.25 490.786133 800.6625 487.098145 799.5625 485.395996 C 798.4625 483.552002 795.3 482.700928 790.075 482.700928 L 778.8 482.700928 L 758.725 541.850586 L 738.2375 541.850586 L 758.3125 482.700928 L 734.9375 482.700928 L 714.725 541.850586 L 694.65 541.850586 Z M 720.3625 465.963135 " transform="matrix(0.0284091,0,0,0.0275387,0,0)"/>
<path style="fill-rule:nonzero;fill:rgb(100%,60%,0%);fill-opacity:1;stroke-width:3.125197;stroke-linecap:butt;stroke-linejoin:round;stroke:rgb(100%,100%,100%);stroke-opacity:1;stroke-miterlimit:4;" d="M 870.65 457.310547 L 849.6125 457.310547 L 856.075 438.445068 L 876.975 438.445068 Z M 841.9125 541.850586 L 820.875 541.850586 L 846.725 465.963135 L 867.7625 465.963135 Z M 841.9125 541.850586 " transform="matrix(0.0284091,0,0,0.0275387,0,0)"/>
<path style="fill-rule:nonzero;fill:rgb(100%,60%,0%);fill-opacity:1;stroke-width:3.125197;stroke-linecap:butt;stroke-linejoin:round;stroke:rgb(100%,100%,100%);stroke-opacity:1;stroke-miterlimit:4;" d="M 884.95 465.963135 L 922.625 465.963135 C 934.0375 465.963135 941.4625 468.09082 944.7625 472.488037 C 948.2 476.743408 948.2 483.835693 944.9 493.764893 L 928.5375 541.850586 L 908.4625 541.850586 L 924 496.17627 C 925.925 490.502441 926.3375 486.956299 925.1 485.25415 C 924 483.552002 920.7 482.700928 915.3375 482.700928 L 899.25 482.700928 L 879.175 541.850586 L 859.1 541.850586 Z M 884.95 465.963135 " transform="matrix(0.0284091,0,0,0.0275387,0,0)"/>
</g>
</svg>
