<?xml version="1.0" encoding="UTF-8"?>
<svg xmlns="http://www.w3.org/2000/svg" xmlns:xlink="http://www.w3.org/1999/xlink" width="35px" height="px" viewBox="0 0 35 32" version="1.1">
<g id="surface1">
<path style=" stroke:none;fill-rule:nonzero;fill:rgb(100%,100%,100%);fill-opacity:1;" d="M 0.101562 15.964844 C 0.101562 18.640625 2.667969 21.132812 6.714844 22.542969 C 5.90625 26.679688 6.570312 30.015625 8.785156 31.3125 C 11.054688 32.644531 14.445312 31.722656 17.664062 28.859375 C 20.800781 31.609375 23.972656 32.6875 26.183594 31.390625 C 28.457031 30.046875 29.148438 26.484375 28.320312 22.222656 C 32.53125 20.796875 34.882812 18.671875 34.882812 15.964844 C 34.882812 13.355469 32.320312 11.097656 28.328125 9.695312 C 29.222656 5.257812 28.464844 2 26.160156 0.644531 C 23.933594 -0.660156 20.726562 0.480469 17.546875 3.296875 C 14.230469 0.304688 11.058594 -0.605469 8.757812 0.75 C 6.535156 2.054688 5.898438 5.453125 6.714844 9.667969 C 2.800781 11.054688 0.101562 13.359375 0.101562 15.964844 Z M 0.101562 15.964844 "/>
<path style=" stroke:none;fill-rule:nonzero;fill:rgb(32.54902%,75.686275%,87.058824%);fill-opacity:1;" d="M 27.480469 11.082031 C 27.152344 10.972656 26.824219 10.859375 26.488281 10.765625 C 26.542969 10.535156 26.589844 10.304688 26.640625 10.078125 C 27.390625 6.355469 26.898438 3.359375 25.222656 2.375 C 23.613281 1.429688 20.972656 2.417969 18.3125 4.769531 C 18.054688 5.007812 17.792969 5.242188 17.542969 5.492188 C 17.378906 5.328125 17.207031 5.167969 17.035156 5.007812 C 14.238281 2.484375 11.441406 1.429688 9.769531 2.417969 C 8.15625 3.367188 7.683594 6.179688 8.359375 9.707031 C 8.429688 10.054688 8.503906 10.402344 8.585938 10.75 C 8.191406 10.859375 7.808594 10.984375 7.445312 11.109375 C 4.167969 12.269531 2.085938 14.089844 2.085938 15.980469 C 2.085938 17.921875 4.328125 19.882812 7.730469 21.0625 C 8.011719 21.160156 8.285156 21.25 8.566406 21.332031 C 8.476562 21.703125 8.394531 22.078125 8.324219 22.453125 C 7.675781 25.917969 8.183594 28.667969 9.789062 29.609375 C 11.449219 30.582031 14.230469 29.582031 16.941406 27.171875 C 17.160156 26.980469 17.371094 26.777344 17.589844 26.5625 C 17.855469 26.832031 18.136719 27.089844 18.421875 27.339844 C 21.046875 29.640625 23.636719 30.570312 25.246094 29.625 C 26.898438 28.644531 27.441406 25.695312 26.742188 22.097656 C 26.6875 21.828125 26.625 21.542969 26.558594 21.257812 C 26.75 21.203125 26.941406 21.140625 27.132812 21.078125 C 30.671875 19.882812 32.976562 17.953125 32.976562 15.980469 C 32.976562 14.082031 30.816406 12.257812 27.480469 11.082031 Z M 27.480469 11.082031 "/>
<path style=" stroke:none;fill-rule:nonzero;fill:rgb(100%,100%,100%);fill-opacity:1;" d="M 26.714844 19.804688 C 26.542969 19.859375 26.371094 19.917969 26.195312 19.964844 C 25.804688 18.707031 25.277344 17.367188 24.628906 15.984375 C 25.246094 14.632812 25.757812 13.3125 26.132812 12.0625 C 26.449219 12.152344 26.753906 12.25 27.050781 12.355469 C 29.914062 13.355469 31.65625 14.839844 31.65625 15.980469 C 31.65625 17.195312 29.769531 18.769531 26.714844 19.804688 Z M 25.441406 22.359375 C 25.757812 23.953125 25.800781 25.390625 25.59375 26.507812 C 25.410156 27.519531 25.039062 28.195312 24.582031 28.457031 C 23.613281 29.035156 21.527344 28.292969 19.285156 26.328125 C 19.023438 26.097656 18.765625 25.855469 18.503906 25.605469 C 19.371094 24.632812 20.246094 23.507812 21.097656 22.257812 C 22.585938 22.125 24 21.902344 25.277344 21.597656 C 25.339844 21.859375 25.394531 22.109375 25.441406 22.359375 Z M 12.613281 28.359375 C 11.660156 28.703125 10.902344 28.714844 10.453125 28.445312 C 9.472656 27.875 9.070312 25.667969 9.625 22.703125 C 9.6875 22.355469 9.761719 22.007812 9.851562 21.660156 C 11.113281 21.945312 12.515625 22.152344 14.011719 22.269531 C 14.867188 23.5 15.757812 24.625 16.660156 25.609375 C 16.46875 25.796875 16.277344 25.980469 16.070312 26.160156 C 14.875 27.222656 13.671875 27.980469 12.613281 28.359375 Z M 8.160156 19.792969 C 6.652344 19.269531 5.40625 18.589844 4.558594 17.847656 C 3.785156 17.179688 3.402344 16.515625 3.402344 15.980469 C 3.402344 14.832031 5.078125 13.375 7.875 12.382812 C 8.230469 12.257812 8.585938 12.144531 8.941406 12.042969 C 9.324219 13.320312 9.835938 14.660156 10.445312 16.015625 C 9.824219 17.382812 9.308594 18.742188 8.921875 20.035156 C 8.667969 19.964844 8.414062 19.882812 8.160156 19.792969 Z M 9.652344 9.445312 C 9.070312 6.429688 9.460938 4.152344 10.433594 3.578125 C 11.464844 2.972656 13.746094 3.839844 16.152344 6.015625 C 16.308594 6.152344 16.460938 6.296875 16.617188 6.453125 C 15.722656 7.429688 14.832031 8.546875 13.988281 9.765625 C 12.535156 9.902344 11.144531 10.117188 9.863281 10.417969 C 9.789062 10.097656 9.714844 9.769531 9.652344 9.445312 Z M 22.976562 12.796875 C 22.675781 12.265625 22.359375 11.742188 22.039062 11.222656 C 23.023438 11.347656 23.964844 11.519531 24.855469 11.722656 C 24.589844 12.589844 24.261719 13.5 23.863281 14.429688 C 23.582031 13.882812 23.285156 13.332031 22.976562 12.796875 Z M 17.542969 7.410156 C 18.15625 8.082031 18.765625 8.832031 19.359375 9.644531 C 18.144531 9.582031 16.925781 9.582031 15.707031 9.640625 C 16.308594 8.832031 16.925781 8.089844 17.542969 7.410156 Z M 12.074219 12.804688 C 11.769531 13.339844 11.484375 13.882812 11.203125 14.429688 C 10.820312 13.5 10.492188 12.589844 10.21875 11.707031 C 11.101562 11.507812 12.042969 11.347656 13.023438 11.222656 C 12.695312 11.742188 12.378906 12.269531 12.074219 12.804688 Z M 13.050781 20.832031 C 12.039062 20.714844 11.089844 20.5625 10.207031 20.367188 C 10.480469 19.464844 10.816406 18.535156 11.203125 17.589844 C 11.484375 18.140625 11.777344 18.679688 12.078125 19.214844 C 12.394531 19.765625 12.714844 20.296875 13.050781 20.832031 Z M 17.582031 24.640625 C 16.953125 23.953125 16.332031 23.195312 15.722656 22.375 C 16.308594 22.402344 16.917969 22.417969 17.527344 22.417969 C 18.15625 22.417969 18.777344 22.394531 19.394531 22.367188 C 18.792969 23.203125 18.183594 23.964844 17.582031 24.640625 Z M 23.878906 17.542969 C 24.292969 18.5 24.644531 19.421875 24.917969 20.304688 C 24.019531 20.515625 23.050781 20.679688 22.03125 20.804688 C 22.359375 20.277344 22.675781 19.742188 22.980469 19.207031 C 23.296875 18.660156 23.589844 18.105469 23.878906 17.542969 Z M 21.839844 18.535156 C 21.371094 19.359375 20.878906 20.171875 20.355469 20.972656 C 19.441406 21.035156 18.496094 21.070312 17.527344 21.070312 C 16.570312 21.070312 15.632812 21.042969 14.730469 20.980469 C 14.199219 20.1875 13.691406 19.375 13.222656 18.542969 C 12.75 17.714844 12.3125 16.867188 11.910156 16.007812 C 12.3125 15.144531 12.75 14.304688 13.222656 13.480469 C 13.683594 12.644531 14.183594 11.839844 14.71875 11.046875 C 15.632812 10.980469 16.578125 10.945312 17.527344 10.945312 C 18.484375 10.945312 19.425781 10.980469 20.351562 11.046875 C 20.871094 11.839844 21.371094 12.644531 21.832031 13.472656 C 22.304688 14.292969 22.75 15.140625 23.167969 15.992188 C 22.757812 16.855469 22.3125 17.703125 21.839844 18.535156 Z M 24.5625 3.542969 C 25.59375 4.144531 25.996094 6.597656 25.347656 9.804688 C 25.308594 10.015625 25.257812 10.222656 25.210938 10.429688 C 23.925781 10.132812 22.539062 9.902344 21.082031 9.765625 C 20.234375 8.535156 19.351562 7.417969 18.472656 6.453125 C 18.703125 6.222656 18.933594 6 19.183594 5.785156 C 21.457031 3.765625 23.589844 2.972656 24.5625 3.542969 Z M 24.5625 3.542969 "/>
<path style=" stroke:none;fill-rule:nonzero;fill:rgb(32.54902%,75.686275%,87.058824%);fill-opacity:1;" d="M 17.527344 13.171875 C 19.050781 13.171875 20.289062 14.429688 20.289062 15.980469 C 20.289062 17.527344 19.050781 18.785156 17.527344 18.785156 C 16.003906 18.785156 14.773438 17.527344 14.773438 15.980469 C 14.773438 14.429688 16.003906 13.171875 17.527344 13.171875 "/>
</g>
</svg>
