<?xml version="1.0" encoding="UTF-8"?>
<svg xmlns="http://www.w3.org/2000/svg" xmlns:xlink="http://www.w3.org/1999/xlink" width="30px" height="30px" viewBox="0 0 30 26" version="1.1">
<g id="surface1">
<path style=" stroke:none;fill-rule:nonzero;fill:rgb(38.039216%,85.490196%,98.431373%);fill-opacity:1;" d="M 17.613281 13 C 17.613281 14.4375 16.441406 15.605469 15 15.605469 C 13.558594 15.605469 12.386719 14.4375 12.386719 13 C 12.386719 11.5625 13.558594 10.394531 15 10.394531 C 16.441406 10.394531 17.613281 11.5625 17.613281 13 Z M 17.613281 13 "/>
<path style="fill:none;stroke-width:1;stroke-linecap:butt;stroke-linejoin:miter;stroke:rgb(38.039216%,85.490196%,98.431373%);stroke-opacity:1;stroke-miterlimit:4;" d="M 11.000453 0 C 11.000453 -2.318129 6.076295 -4.199687 0 -4.199687 C -6.076295 -4.199687 -11.000453 -2.318129 -11.000453 0 C -11.000453 2.318129 -6.076295 4.199687 0 4.199687 C 6.076295 4.199687 11.000453 2.318129 11.000453 0 Z M 11.000453 0 " transform="matrix(1.274805,0,0,1.270556,15,13)"/>
<path style="fill:none;stroke-width:1;stroke-linecap:butt;stroke-linejoin:miter;stroke:rgb(38.039216%,85.490196%,98.431373%);stroke-opacity:1;stroke-miterlimit:4;" d="M 11.001337 0.000510723 C 10.999951 -2.321365 6.074001 -4.199428 0.0000809066 -4.199827 C -6.07384 -4.200225 -11.000061 -2.32085 -11.001337 -0.000510723 C -10.999951 2.321365 -6.074001 4.199428 -0.0000809066 4.199827 C 6.07384 4.200225 11.000061 2.32085 11.001337 0.000510723 Z M 11.001337 0.000510723 " transform="matrix(0.637403,1.100334,-1.104014,0.635278,15,13)"/>
<path style="fill:none;stroke-width:1;stroke-linecap:butt;stroke-linejoin:miter;stroke:rgb(38.039216%,85.490196%,98.431373%);stroke-opacity:1;stroke-miterlimit:4;" d="M 11.001337 -0.000510723 C 11.000061 -2.32085 6.07384 -4.200225 -0.0000809066 -4.199827 C -6.074001 -4.199428 -10.999951 -2.321365 -11.001337 0.000510723 C -11.000061 2.32085 -6.07384 4.200225 0.0000809066 4.199827 C 6.074001 4.199428 10.999951 2.321365 11.001337 -0.000510723 Z M 11.001337 -0.000510723 " transform="matrix(-0.637403,1.100334,-1.104014,-0.635278,15,13)"/>
</g>
</svg>
