<?xml version="1.0" encoding="UTF-8"?>
<svg xmlns="http://www.w3.org/2000/svg" xmlns:xlink="http://www.w3.org/1999/xlink" width="30px" height="30px" viewBox="0 0 30 8" version="1.1">
<g id="surface1">
<path style=" stroke:none;fill-rule:nonzero;fill:rgb(0%,0%,0%);fill-opacity:1;" d="M 7.804688 4.007812 C 7.804688 5.886719 6.199219 7.410156 4.222656 7.410156 C 2.242188 7.410156 0.636719 5.886719 0.636719 4.007812 C 0.636719 2.128906 2.242188 0.605469 4.222656 0.605469 C 6.199219 0.605469 7.804688 2.128906 7.804688 4.007812 Z M 7.804688 4.007812 "/>
<path style=" stroke:none;fill-rule:nonzero;fill:rgb(100%,100%,100%);fill-opacity:1;" d="M 5.789062 1.863281 C 5.425781 1.878906 5.105469 2.066406 4.871094 2.332031 C 4.609375 2.621094 4.433594 2.964844 4.308594 3.3125 C 4.085938 3.136719 3.910156 2.910156 3.550781 2.8125 C 3.273438 2.738281 2.980469 2.769531 2.710938 2.957031 C 2.582031 3.050781 2.496094 3.1875 2.453125 3.3125 C 2.34375 3.648438 2.566406 3.945312 2.667969 4.050781 L 2.886719 4.277344 C 2.933594 4.320312 3.042969 4.433594 2.988281 4.597656 C 2.933594 4.777344 2.703125 4.894531 2.472656 4.824219 C 2.367188 4.792969 2.21875 4.722656 2.253906 4.617188 C 2.265625 4.574219 2.296875 4.542969 2.316406 4.507812 C 2.332031 4.476562 2.339844 4.453125 2.34375 4.4375 C 2.386719 4.304688 2.328125 4.136719 2.179688 4.089844 C 2.039062 4.050781 1.898438 4.082031 1.84375 4.253906 C 1.78125 4.445312 1.878906 4.792969 2.398438 4.945312 C 3.007812 5.125 3.523438 4.808594 3.597656 4.398438 C 3.640625 4.140625 3.519531 3.949219 3.296875 3.703125 L 3.113281 3.511719 C 3.003906 3.40625 2.964844 3.230469 3.078125 3.09375 C 3.175781 2.976562 3.3125 2.925781 3.539062 2.984375 C 3.867188 3.070312 4.015625 3.285156 4.257812 3.460938 C 4.15625 3.777344 4.089844 4.089844 4.03125 4.375 L 3.996094 4.585938 C 3.820312 5.457031 3.6875 5.933594 3.339844 6.210938 C 3.269531 6.257812 3.167969 6.328125 3.019531 6.332031 C 2.941406 6.335938 2.914062 6.28125 2.914062 6.261719 C 2.910156 6.207031 2.957031 6.183594 2.988281 6.160156 C 3.035156 6.136719 3.105469 6.097656 3.101562 5.96875 C 3.097656 5.816406 2.964844 5.6875 2.773438 5.691406 C 2.632812 5.699219 2.414062 5.824219 2.421875 6.058594 C 2.433594 6.296875 2.667969 6.480469 3.023438 6.46875 C 3.214844 6.460938 3.640625 6.386719 4.058594 5.914062 C 4.546875 5.371094 4.683594 4.75 4.785156 4.296875 L 4.898438 3.695312 C 4.964844 3.703125 5.03125 3.707031 5.105469 3.710938 C 5.710938 3.722656 6.015625 3.421875 6.019531 3.207031 C 6.023438 3.074219 5.929688 2.945312 5.796875 2.949219 C 5.703125 2.949219 5.585938 3.011719 5.558594 3.132812 C 5.53125 3.253906 5.75 3.363281 5.578125 3.46875 C 5.457031 3.546875 5.234375 3.597656 4.925781 3.554688 L 4.984375 3.261719 C 5.097656 2.699219 5.238281 2.011719 5.777344 1.992188 C 5.816406 1.992188 5.960938 1.996094 5.964844 2.085938 C 5.964844 2.117188 5.957031 2.125 5.917969 2.191406 C 5.882812 2.246094 5.867188 2.292969 5.867188 2.34375 C 5.875 2.488281 5.988281 2.582031 6.15625 2.574219 C 6.375 2.570312 6.441406 2.363281 6.4375 2.257812 C 6.425781 2.011719 6.152344 1.855469 5.789062 1.863281 Z M 5.789062 1.863281 "/>
<path style=" stroke:none;fill-rule:nonzero;fill:rgb(0%,0%,0%);fill-opacity:1;" d="M 22.367188 3.050781 C 23.191406 3.050781 23.746094 3.617188 23.746094 4.402344 C 23.746094 5.140625 23.183594 5.753906 22.367188 5.753906 C 21.546875 5.753906 20.980469 5.140625 20.980469 4.402344 C 20.980469 3.617188 21.535156 3.050781 22.367188 3.050781 Z M 22.367188 5.371094 C 22.953125 5.371094 23.214844 4.863281 23.214844 4.402344 C 23.214844 3.910156 22.898438 3.4375 22.367188 3.4375 C 21.828125 3.4375 21.515625 3.910156 21.515625 4.402344 C 21.515625 4.863281 21.773438 5.371094 22.367188 5.371094 Z M 22.367188 5.371094 "/>
<path style=" stroke:none;fill-rule:nonzero;fill:rgb(0%,0%,0%);fill-opacity:1;" d="M 20.914062 3.292969 L 20.914062 3.113281 L 20.191406 3.113281 L 20.191406 2.867188 C 20.191406 2.515625 20.246094 2.253906 20.679688 2.253906 C 20.6875 2.253906 20.695312 2.253906 20.703125 2.253906 C 20.824219 2.261719 20.921875 2.167969 20.929688 2.054688 L 20.9375 1.898438 C 20.835938 1.882812 20.730469 1.871094 20.601562 1.871094 C 19.863281 1.871094 19.691406 2.28125 19.691406 2.90625 L 19.691406 3.113281 L 19.050781 3.113281 L 19.050781 3.3125 C 19.066406 3.417969 19.160156 3.496094 19.277344 3.496094 L 19.691406 3.496094 L 19.691406 5.691406 L 19.96875 5.691406 C 20.082031 5.691406 20.175781 5.609375 20.191406 5.507812 L 20.191406 3.496094 L 20.695312 3.496094 C 20.8125 3.492188 20.90625 3.402344 20.914062 3.292969 Z M 20.914062 3.292969 "/>
<path style=" stroke:none;fill-rule:nonzero;fill:rgb(0%,0%,0%);fill-opacity:1;" d="M 14.238281 3.113281 C 14.132812 3.113281 14.027344 3.179688 13.984375 3.273438 L 13.292969 5.246094 L 13.285156 5.246094 L 12.609375 3.277344 C 12.566406 3.183594 12.464844 3.113281 12.355469 3.113281 L 12.003906 3.113281 L 12.925781 5.519531 C 12.960938 5.605469 13.023438 5.738281 13.023438 5.792969 C 13.023438 5.84375 12.875 6.433594 12.425781 6.433594 C 12.414062 6.433594 12.402344 6.429688 12.394531 6.429688 C 12.277344 6.425781 12.191406 6.5 12.171875 6.617188 L 12.160156 6.78125 C 12.25 6.796875 12.339844 6.816406 12.5 6.816406 C 13.160156 6.816406 13.359375 6.246094 13.546875 5.75 L 14.546875 3.113281 Z M 14.238281 3.113281 "/>
<path style=" stroke:none;fill-rule:nonzero;fill:rgb(0%,0%,0%);fill-opacity:1;" d="M 11.054688 3.636719 C 10.640625 3.433594 10.1875 3.296875 10.179688 2.894531 C 10.179688 2.464844 10.597656 2.351562 10.917969 2.351562 C 10.917969 2.351562 10.917969 2.351562 10.921875 2.351562 C 11.058594 2.351562 11.171875 2.367188 11.28125 2.386719 C 11.398438 2.394531 11.492188 2.308594 11.507812 2.203125 L 11.515625 2.046875 C 11.304688 1.996094 11.085938 1.972656 10.894531 1.972656 C 10.199219 1.976562 9.683594 2.308594 9.679688 2.941406 C 9.679688 3.496094 10.074219 3.714844 10.5 3.90625 C 10.914062 4.097656 11.371094 4.253906 11.375 4.710938 C 11.371094 5.191406 10.886719 5.367188 10.550781 5.367188 C 10.355469 5.367188 10.144531 5.320312 9.964844 5.265625 C 9.851562 5.25 9.757812 5.34375 9.746094 5.46875 L 9.730469 5.605469 C 9.976562 5.683594 10.226562 5.75 10.480469 5.75 C 10.480469 5.75 10.480469 5.75 10.484375 5.75 C 11.265625 5.742188 11.871094 5.449219 11.875 4.679688 C 11.875 4.089844 11.476562 3.839844 11.054688 3.636719 Z M 11.054688 3.636719 "/>
<path style=" stroke:none;fill-rule:nonzero;fill:rgb(0%,0%,0%);fill-opacity:1;" d="M 18.632812 5.691406 C 18.742188 5.691406 18.832031 5.621094 18.851562 5.523438 L 18.851562 4.039062 C 18.851562 3.476562 18.601562 3.050781 17.910156 3.050781 C 17.664062 3.050781 17.253906 3.183594 17.066406 3.550781 C 16.925781 3.203125 16.609375 3.050781 16.296875 3.050781 C 15.894531 3.050781 15.625 3.1875 15.433594 3.488281 L 15.421875 3.488281 L 15.421875 3.328125 C 15.417969 3.207031 15.320312 3.113281 15.195312 3.113281 C 15.191406 3.113281 15.191406 3.113281 15.191406 3.113281 L 14.953125 3.113281 L 14.953125 5.691406 L 15.222656 5.691406 C 15.351562 5.691406 15.453125 5.597656 15.453125 5.476562 C 15.453125 5.472656 15.453125 5.472656 15.453125 5.46875 L 15.453125 4.390625 C 15.453125 3.910156 15.65625 3.4375 16.167969 3.4375 C 16.574219 3.4375 16.652344 3.835938 16.652344 4.15625 L 16.652344 5.691406 L 16.929688 5.691406 C 17.046875 5.691406 17.144531 5.605469 17.152344 5.496094 L 17.152344 4.390625 C 17.152344 3.910156 17.355469 3.4375 17.867188 3.4375 C 18.273438 3.4375 18.351562 3.835938 18.351562 4.15625 L 18.351562 5.691406 Z M 18.632812 5.691406 "/>
<path style=" stroke:none;fill-rule:nonzero;fill:rgb(0%,0%,0%);fill-opacity:1;" d="M 26.375 5.691406 C 26.496094 5.691406 26.59375 5.601562 26.601562 5.488281 L 26.601562 4.160156 C 26.601562 3.464844 26.285156 3.050781 25.582031 3.050781 C 25.203125 3.050781 24.84375 3.230469 24.691406 3.523438 L 24.683594 3.523438 L 24.683594 3.328125 C 24.683594 3.328125 24.679688 3.328125 24.679688 3.328125 C 24.679688 3.210938 24.578125 3.113281 24.453125 3.113281 L 24.195312 3.113281 L 24.195312 5.691406 L 24.472656 5.691406 C 24.59375 5.691406 24.6875 5.605469 24.699219 5.492188 L 24.699219 4.5 C 24.699219 3.871094 24.953125 3.4375 25.523438 3.4375 C 25.960938 3.460938 26.097656 3.753906 26.097656 4.355469 L 26.097656 5.691406 Z M 26.375 5.691406 "/>
<path style=" stroke:none;fill-rule:nonzero;fill:rgb(0%,0%,0%);fill-opacity:1;" d="M 29.070312 3.113281 C 28.964844 3.113281 28.859375 3.179688 28.816406 3.273438 L 28.128906 5.246094 L 28.117188 5.246094 L 27.441406 3.277344 C 27.398438 3.183594 27.292969 3.113281 27.1875 3.113281 L 26.835938 3.113281 L 27.757812 5.519531 C 27.789062 5.605469 27.855469 5.738281 27.855469 5.792969 C 27.855469 5.84375 27.707031 6.433594 27.257812 6.433594 C 27.246094 6.433594 27.234375 6.429688 27.226562 6.429688 C 27.109375 6.425781 27.023438 6.5 27.003906 6.617188 L 26.992188 6.78125 C 27.082031 6.796875 27.171875 6.816406 27.332031 6.816406 C 27.992188 6.816406 28.191406 6.246094 28.378906 5.75 L 29.378906 3.113281 Z M 29.070312 3.113281 "/>
</g>
</svg>
