<?xml version="1.0" encoding="UTF-8"?>
<svg xmlns="http://www.w3.org/2000/svg" xmlns:xlink="http://www.w3.org/1999/xlink" width="35px" height="px" viewBox="0 0 35 35" version="1.1">
<g id="surface1">
<path style=" stroke:none;fill-rule:nonzero;fill:rgb(10.196078%,9.019608%,10.588235%);fill-opacity:1;" d="M 35 17.539062 C 35 27.171875 27.164062 34.972656 17.5 34.972656 C 7.835938 34.972656 0 27.171875 0 17.539062 C 0 7.914062 7.835938 0.113281 17.5 0.113281 C 27.164062 0.113281 35 7.914062 35 17.539062 Z M 35 17.539062 "/>
<path style=" stroke:none;fill-rule:nonzero;fill:rgb(100%,100%,100%);fill-opacity:1;" d="M 25.117188 6.554688 C 23.34375 6.613281 21.792969 7.585938 20.636719 8.9375 C 19.359375 10.414062 18.511719 12.167969 17.898438 13.960938 C 16.804688 13.066406 15.960938 11.90625 14.199219 11.402344 C 12.84375 11.015625 11.414062 11.175781 10.101562 12.148438 C 9.484375 12.609375 9.054688 13.308594 8.851562 13.96875 C 8.328125 15.671875 9.40625 17.191406 9.898438 17.738281 L 10.96875 18.886719 C 11.191406 19.109375 11.726562 19.695312 11.464844 20.535156 C 11.183594 21.453125 10.078125 22.039062 8.941406 21.691406 C 8.4375 21.539062 7.707031 21.164062 7.871094 20.632812 C 7.9375 20.417969 8.09375 20.253906 8.175781 20.066406 C 8.253906 19.90625 8.289062 19.789062 8.3125 19.714844 C 8.523438 19.039062 8.238281 18.164062 7.515625 17.941406 C 6.835938 17.734375 6.144531 17.898438 5.878906 18.765625 C 5.574219 19.75 6.046875 21.539062 8.582031 22.316406 C 11.554688 23.226562 14.0625 21.617188 14.421875 19.515625 C 14.648438 18.195312 14.050781 17.222656 12.957031 15.964844 L 12.066406 14.980469 C 11.523438 14.445312 11.34375 13.53125 11.898438 12.828125 C 12.367188 12.230469 13.042969 11.980469 14.140625 12.277344 C 15.746094 12.710938 16.460938 13.820312 17.65625 14.714844 C 17.15625 16.324219 16.839844 17.9375 16.546875 19.386719 L 16.371094 20.46875 C 15.515625 24.921875 14.867188 27.371094 13.175781 28.773438 C 12.832031 29.015625 12.34375 29.375 11.613281 29.402344 C 11.226562 29.414062 11.101562 29.152344 11.097656 29.035156 C 11.085938 28.765625 11.316406 28.640625 11.464844 28.523438 C 11.695312 28.402344 12.035156 28.195312 12.011719 27.542969 C 11.984375 26.773438 11.34375 26.105469 10.417969 26.136719 C 9.726562 26.160156 8.664062 26.8125 8.703125 28 C 8.746094 29.230469 9.898438 30.15625 11.632812 30.097656 C 12.5625 30.0625 14.632812 29.6875 16.679688 27.265625 C 19.054688 24.496094 19.71875 21.3125 20.21875 18.992188 L 20.78125 15.917969 C 21.089844 15.953125 21.421875 15.984375 21.785156 15.988281 C 24.746094 16.050781 26.226562 14.523438 26.246094 13.414062 C 26.265625 12.738281 25.804688 12.078125 25.164062 12.089844 C 24.703125 12.105469 24.125 12.410156 23.988281 13.042969 C 23.851562 13.664062 24.933594 14.21875 24.089844 14.765625 C 23.492188 15.148438 22.417969 15.421875 20.910156 15.199219 L 21.183594 13.691406 C 21.742188 10.824219 22.4375 7.296875 25.0625 7.210938 C 25.246094 7.199219 25.949219 7.21875 25.96875 7.679688 C 25.972656 7.835938 25.929688 7.871094 25.75 8.226562 C 25.566406 8.5 25.5 8.730469 25.507812 9 C 25.53125 9.734375 26.089844 10.210938 26.898438 10.1875 C 27.980469 10.148438 28.292969 9.101562 28.273438 8.5625 C 28.234375 7.296875 26.886719 6.492188 25.117188 6.554688 Z M 25.117188 6.554688 "/>
</g>
</svg>
