<?xml version="1.0" encoding="UTF-8"?>
<svg xmlns="http://www.w3.org/2000/svg" xmlns:xlink="http://www.w3.org/1999/xlink" width="35px" height="px" viewBox="0 0 35 35" version="1.1">
<g id="surface1">
<path style=" stroke:none;fill-rule:nonzero;fill:rgb(14.117647%,53.72549%,79.215686%);fill-opacity:1;" d="M 1 12.316406 C 1 12.316406 0.171875 11.71875 1.167969 10.917969 L 3.480469 8.84375 C 3.480469 8.84375 4.144531 8.140625 4.847656 8.753906 L 26.222656 24.976562 L 26.222656 32.753906 C 26.222656 32.753906 26.210938 33.976562 24.648438 33.839844 Z M 1 12.316406 "/>
<path style=" stroke:none;fill-rule:nonzero;fill:rgb(6.27451%,43.921569%,70.196078%);fill-opacity:1;" d="M 6.511719 17.332031 L 1 22.351562 C 1 22.351562 0.433594 22.773438 1 23.527344 L 3.558594 25.859375 C 3.558594 25.859375 4.164062 26.515625 5.0625 25.769531 L 10.90625 21.332031 Z M 6.511719 17.332031 "/>
<path style=" stroke:none;fill-rule:nonzero;fill:rgb(3.137255%,46.666667%,72.54902%);fill-opacity:1;" d="M 16.183594 17.371094 L 26.289062 9.636719 L 26.222656 1.898438 C 26.222656 1.898438 25.789062 0.210938 24.351562 1.089844 L 10.90625 13.359375 Z M 16.183594 17.371094 "/>
<path style=" stroke:none;fill-rule:nonzero;fill:rgb(23.529412%,60%,83.137255%);fill-opacity:1;" d="M 24.648438 33.851562 C 25.234375 34.453125 25.945312 34.253906 25.945312 34.253906 L 33.820312 30.367188 C 34.828125 29.675781 34.6875 28.824219 34.6875 28.824219 L 34.6875 5.597656 C 34.6875 4.574219 33.644531 4.222656 33.644531 4.222656 L 26.820312 0.925781 C 25.328125 0 24.351562 1.089844 24.351562 1.089844 C 24.351562 1.089844 25.605469 0.183594 26.222656 1.898438 L 26.222656 32.613281 C 26.222656 32.824219 26.175781 33.03125 26.085938 33.21875 C 25.90625 33.582031 25.515625 33.921875 24.582031 33.777344 Z M 24.648438 33.851562 "/>
</g>
</svg>
