<?xml version="1.0" encoding="UTF-8"?>
<svg xmlns="http://www.w3.org/2000/svg" xmlns:xlink="http://www.w3.org/1999/xlink" width="30px" height="30px" viewBox="0 0 30 30" version="1.1">
<g id="surface1">
<path style=" stroke:none;fill-rule:nonzero;fill:rgb(27.45098%,26.27451%,25.882353%);fill-opacity:1;" d="M 2.132812 15 C 2.132812 20.09375 5.09375 24.496094 9.386719 26.582031 L 3.246094 9.761719 C 2.53125 11.363281 2.132812 13.132812 2.132812 15 Z M 2.132812 15 "/>
<path style=" stroke:none;fill-rule:nonzero;fill:rgb(27.45098%,26.27451%,25.882353%);fill-opacity:1;" d="M 23.6875 14.351562 C 23.6875 12.761719 23.117188 11.660156 22.625 10.800781 C 21.972656 9.742188 21.363281 8.84375 21.363281 7.785156 C 21.363281 6.601562 22.257812 5.5 23.523438 5.5 C 23.582031 5.5 23.632812 5.507812 23.691406 5.511719 C 21.402344 3.414062 18.351562 2.132812 15 2.132812 C 10.503906 2.132812 6.550781 4.4375 4.25 7.933594 C 4.550781 7.941406 4.835938 7.949219 5.078125 7.949219 C 6.421875 7.949219 8.507812 7.785156 8.507812 7.785156 C 9.199219 7.742188 9.28125 8.761719 8.589844 8.84375 C 8.589844 8.84375 7.890625 8.925781 7.117188 8.96875 L 11.800781 22.90625 L 14.617188 14.460938 L 12.613281 8.964844 C 11.921875 8.925781 11.265625 8.84375 11.265625 8.84375 C 10.570312 8.804688 10.652344 7.742188 11.34375 7.785156 C 11.34375 7.785156 13.46875 7.945312 14.734375 7.945312 C 16.082031 7.945312 18.164062 7.785156 18.164062 7.785156 C 18.859375 7.742188 18.941406 8.761719 18.246094 8.84375 C 18.246094 8.84375 17.546875 8.925781 16.773438 8.964844 L 21.425781 22.800781 L 22.707031 18.511719 C 23.265625 16.730469 23.6875 15.453125 23.6875 14.351562 Z M 23.6875 14.351562 "/>
<path style=" stroke:none;fill-rule:nonzero;fill:rgb(27.45098%,26.27451%,25.882353%);fill-opacity:1;" d="M 15.226562 16.125 L 11.367188 27.34375 C 12.519531 27.683594 13.738281 27.867188 15 27.867188 C 16.5 27.867188 17.9375 27.609375 19.273438 27.140625 C 19.238281 27.082031 19.207031 27.023438 19.183594 26.960938 Z M 15.226562 16.125 "/>
<path style=" stroke:none;fill-rule:nonzero;fill:rgb(27.45098%,26.27451%,25.882353%);fill-opacity:1;" d="M 26.292969 8.824219 C 26.347656 9.234375 26.378906 9.675781 26.378906 10.148438 C 26.378906 11.453125 26.132812 12.921875 25.398438 14.757812 L 21.46875 26.121094 C 25.292969 23.890625 27.867188 19.746094 27.867188 15 C 27.867188 12.761719 27.296875 10.660156 26.292969 8.824219 Z M 26.292969 8.824219 "/>
<path style=" stroke:none;fill-rule:nonzero;fill:rgb(27.45098%,26.27451%,25.882353%);fill-opacity:1;" d="M 15 0 C 6.730469 0 0 6.730469 0 15 C 0 23.269531 6.730469 30 15 30 C 23.269531 30 30 23.269531 30 15 C 30 6.730469 23.269531 0 15 0 Z M 15 29.3125 C 7.109375 29.3125 0.6875 22.890625 0.6875 15 C 0.6875 7.109375 7.109375 0.6875 15 0.6875 C 22.890625 0.6875 29.3125 7.109375 29.3125 15 C 29.3125 22.890625 22.890625 29.3125 15 29.3125 Z M 15 29.3125 "/>
</g>
</svg>
